<svg width="20" height="21" viewBox="0 0 20 21" fill="none" xmlns="http://www.w3.org/2000/svg">
<g id="tabler:massage">
<path id="Vector" d="M3.33333 18.8333L6.66667 17.1666V14.6666H16.6667M9.16667 17.1666H16.6667M6.66667 12.1666L9.16667 10.4999L10 7.16658C12.5 7.99992 12.5 10.4999 12.5 12.1666M2.5 14.6666C2.5 14.8876 2.5878 15.0996 2.74408 15.2558C2.90036 15.4121 3.11232 15.4999 3.33333 15.4999C3.55435 15.4999 3.76631 15.4121 3.92259 15.2558C4.07887 15.0996 4.16667 14.8876 4.16667 14.6666C4.16667 14.4456 4.07887 14.2336 3.92259 14.0773C3.76631 13.921 3.55435 13.8333 3.33333 13.8333C3.11232 13.8333 2.90036 13.921 2.74408 14.0773C2.5878 14.2336 2.5 14.4456 2.5 14.6666ZM6.66667 4.66659C6.66667 4.8876 6.75446 5.09956 6.91074 5.25584C7.06702 5.41212 7.27899 5.49992 7.5 5.49992C7.72101 5.49992 7.93297 5.41212 8.08925 5.25584C8.24553 5.09956 8.33333 4.8876 8.33333 4.66659C8.33333 4.44557 8.24553 4.23361 8.08925 4.07733C7.93297 3.92105 7.72101 3.83325 7.5 3.83325C7.27899 3.83325 7.06702 3.92105 6.91074 4.07733C6.75446 4.23361 6.66667 4.44557 6.66667 4.66659Z" stroke="black" stroke-width="1.8" stroke-linecap="round" stroke-linejoin="round"/>
</g>
</svg>
