<svg width="24" height="25" viewBox="0 0 24 25" fill="none" xmlns="http://www.w3.org/2000/svg">
<g id="bank-note-05">
<path id="Icon" d="M17 9.5V7.5C17 6.96957 16.7893 6.46086 16.4142 6.08579C16.0391 5.71071 15.5304 5.5 15 5.5H5C4.46957 5.5 3.96086 5.71071 3.58579 6.08579C3.21071 6.46086 3 6.96957 3 7.5V13.5C3 14.0304 3.21071 14.5391 3.58579 14.9142C3.96086 15.2893 4.46957 15.5 5 15.5H7M9 9.5H19C20.1046 9.5 21 10.3954 21 11.5V17.5C21 18.6046 20.1046 19.5 19 19.5H9C7.89543 19.5 7 18.6046 7 17.5V11.5C7 10.3954 7.89543 9.5 9 9.5ZM16 14.5C16 15.6046 15.1046 16.5 14 16.5C12.8954 16.5 12 15.6046 12 14.5C12 13.3954 12.8954 12.5 14 12.5C15.1046 12.5 16 13.3954 16 14.5Z" stroke="black" stroke-width="2" stroke-linecap="round" stroke-linejoin="round"/>
</g>
</svg>
