<svg width="30" height="30" viewBox="0 0 30 30" fill="none" xmlns="http://www.w3.org/2000/svg">
<path d="M12.3945 6.9122C13.4316 5.11563 15.14 3.80463 17.1437 3.26762C19.1474 2.73061 21.2824 3.01157 23.079 4.0487C24.8756 5.08583 26.1866 6.79417 26.7236 8.7979C27.2606 10.8016 26.9796 12.9366 25.9425 14.7332L25.647 15.2432C25.5475 15.4155 25.3837 15.5411 25.1916 15.5926C24.9995 15.6441 24.7948 15.6172 24.6225 15.5177L19.425 12.5177L16.5285 17.5877C18.5385 18.1982 20.2665 19.5857 21.501 21.3797L21.366 21.3752C20.8672 21.3729 20.3817 21.5365 19.986 21.8402C18.546 19.9607 16.482 18.7502 14.25 18.7502C12.018 18.7502 9.954 19.9607 8.514 21.8402C8.08148 21.5082 7.54312 21.3446 6.999 21.3797C8.679 18.9377 11.2695 17.2502 14.25 17.2502C14.494 17.2502 14.7355 17.2612 14.9745 17.2832L18.126 11.7677L12.375 8.4452C12.2027 8.34574 12.0771 8.18193 12.0256 7.9898C11.9741 7.79767 12.001 7.59296 12.1005 7.4207L12.3945 6.9122ZM13.776 7.5242L16.3305 8.9987L16.347 8.9732C17.151 7.8632 17.907 7.0097 18.8955 6.2612C19.6338 5.71532 20.4247 5.24449 21.2565 4.8557C19.8924 4.37891 18.4061 4.38367 17.0451 4.86919C15.6841 5.35471 14.5304 6.29169 13.776 7.5242ZM21.006 11.6972C21.7035 10.4732 22.038 9.5072 22.155 8.5697C22.2495 7.8152 22.2075 7.0472 22.0665 6.1307C21.123 6.5777 20.4075 6.9977 19.8015 7.4567C18.9975 8.0657 18.357 8.7662 17.6355 9.7517L21.006 11.6972ZM22.305 12.4472L24.7215 13.8422C25.3765 12.6374 25.6222 11.2523 25.4214 9.89577C25.2207 8.5392 24.5844 7.28465 23.6085 6.3212C23.715 7.1612 23.7435 7.9532 23.643 8.7572C23.4945 9.9422 23.073 11.1002 22.305 12.4472ZM7.857 23.3897C7.8056 23.2354 7.70543 23.102 7.57159 23.0096C7.43776 22.9172 7.27751 22.8708 7.115 22.8774C6.95249 22.884 6.79653 22.9432 6.67063 23.0462C6.54473 23.1491 6.45572 23.2902 6.417 23.4482C6.162 24.4892 5.679 25.0607 5.1285 25.3937C4.5525 25.7402 3.819 25.8752 3 25.8752C2.80109 25.8752 2.61032 25.9542 2.46967 26.0949C2.32902 26.2355 2.25 26.4263 2.25 26.6252C2.25 26.8241 2.32902 27.0149 2.46967 27.1555C2.61032 27.2962 2.80109 27.3752 3 27.3752C3.957 27.3752 4.9995 27.2222 5.904 26.6777C6.44317 26.352 6.89756 25.9033 7.23 25.3682C9.0195 27.6497 12.513 27.6392 14.25 25.3442C16.0155 27.6752 19.59 27.6497 21.3525 25.2587C21.8312 25.9101 22.4555 26.4407 23.1756 26.8082C23.8956 27.1756 24.6916 27.3698 25.5 27.3752C25.6989 27.3752 25.8897 27.2962 26.0303 27.1555C26.171 27.0149 26.25 26.8241 26.25 26.6252C26.25 26.4263 26.171 26.2355 26.0303 26.0949C25.8897 25.9542 25.6989 25.8752 25.5 25.8752C24.0255 25.8752 22.5555 24.9152 22.0695 23.3972C22.021 23.2469 21.9262 23.1157 21.7988 23.0224C21.6713 22.9291 21.5177 22.8784 21.3597 22.8776C21.2018 22.8768 21.0476 22.9258 20.9192 23.0178C20.7907 23.1098 20.6946 23.2399 20.6445 23.3897C19.68 26.2982 15.9045 26.2607 14.9595 23.5097C14.9088 23.3618 14.8132 23.2334 14.686 23.1426C14.5588 23.0517 14.4063 23.0028 14.25 23.0028C14.0937 23.0028 13.9412 23.0517 13.814 23.1426C13.6868 23.2334 13.5912 23.3618 13.5405 23.5097C12.5955 26.2607 8.8215 26.2982 7.857 23.3897Z" fill="black"/>
</svg>
