<svg width="30" height="30" viewBox="0 0 30 30" fill="none" xmlns="http://www.w3.org/2000/svg">
<path d="M15 0C6.7212 0 0 6.7212 0 15C0 23.2788 6.7212 30 15 30C23.2638 30 29.9733 23.3028 29.9976 15.0444C29.9991 15.0296 29.9999 15.0148 30 15C30 14.9867 29.9994 14.9734 29.9982 14.9601C29.9766 6.6996 23.2656 0 15 0ZM14.1861 0.9246C13.6386 1.0536 13.1001 1.2291 12.6306 1.5534C12.1749 1.7589 11.9508 1.5114 11.9619 1.2315C12.694 1.07028 13.4377 0.967655 14.1861 0.9246ZM18.3381 1.554C18.8187 1.5459 19.0119 2.4384 19.8201 2.4984C20.6355 3.1776 20.4456 1.5624 19.6335 1.9062C19.5461 1.79287 19.451 1.68571 19.3488 1.5855C22.0744 2.47014 24.4661 4.16374 26.2056 6.441C25.71 6.2619 25.1931 6.4557 24.7125 5.6604C23.9247 4.5894 24.516 6.9513 23.769 5.7534C23.0889 5.3931 24.4821 5.3856 23.4732 5.0553C22.8357 4.5939 22.3677 4.4514 23.028 5.2593C22.416 5.5284 22.5489 4.3449 22.1391 4.2603C22.1138 4.25532 22.0879 4.2543 22.0623 4.2573C21.9798 4.266 21.8793 4.3119 21.753 4.4082C21.1722 4.5867 21.4674 5.9739 20.5296 5.9043C21.4644 6.1227 23.0262 4.9884 23.6736 6.0243C23.9001 6.5445 25.3515 7.3653 25.4676 7.1469C25.1937 6.3963 26.4273 7.2402 26.8008 7.2822C28.3046 9.575 29.1039 12.258 29.1 15C29.1 18.9504 27.477 22.5171 24.8631 25.0758C24.7761 25.0878 24.6882 25.0902 24.5994 25.074C25.461 23.6508 25.0374 21.9141 25.7214 20.4444C26.4558 19.389 26.1846 17.9184 25.5087 16.9335C25.6983 16.0305 25.8405 15.0888 24.7131 15.1389C24.0882 13.7916 22.959 15.8088 21.8925 15.2544C20.6697 15.7326 19.6215 14.4696 19.0353 13.5978C18.0315 13.2498 17.8794 11.9013 18.3243 11.0532C18.2877 10.5972 17.7885 9.966 18.2964 9.8343C17.4297 9.8193 18.6426 8.6193 18.6933 8.1153L19.0233 7.8105C19.7949 7.4601 19.5564 6.4311 20.127 5.901C19.3011 5.6961 19.1742 4.9092 18.9099 4.1694C19.4628 3.9036 21.099 4.3725 19.8264 3.5343C19.446 3.4215 19.0059 3.1497 19.5651 2.9763C18.6627 3.3381 18.8736 1.8033 18.4833 2.6853C17.3874 2.7657 18.3768 1.9797 17.9484 1.7244C18.1011 1.6053 18.2274 1.5558 18.3381 1.554ZM10.0629 1.7889C10.1025 1.9866 9.9486 2.4138 10.1298 2.5683C9.6915 3.0009 10.2237 3.9918 8.997 3.5808C8.4786 3.3861 10.0509 2.6823 8.808 3.1383C8.1456 3.3432 8.1012 3.6282 8.5833 3.7677C7.4979 4.4568 6.834 4.2279 5.9004 5.0865C4.9437 6.1335 3.4914 6.8997 3.1401 8.3706C3.7143 8.2047 3.1851 9.4401 3.6165 9.6606C3.7005 9.8592 3.0273 10.2384 3.8421 10.3581C3.8058 10.8771 5.1426 10.5465 4.4742 10.9833C3.9834 10.8222 2.4942 11.2962 3.1182 10.452C2.3697 10.638 2.6634 9.6567 2.0157 9.7938C2.187 8.5935 3.6858 10.4253 3.2988 9.678C2.9829 9.6705 3.4356 8.5125 2.8944 9.2865C3.4644 8.0022 2.7978 9.1449 2.6694 8.9079C2.8248 8.4351 2.9151 8.0445 2.8284 7.8813C4.4562 5.1018 7.0062 2.9304 10.0629 1.7889ZM17.7093 7.6554C17.9553 7.7679 18.1905 7.7199 18.4002 7.6722L18.4056 8.0373C17.8347 8.0913 16.9995 7.7391 17.7096 7.6554M1.851 9.906C1.875 10.0131 1.8174 10.2282 1.6224 10.542C1.69347 10.3282 1.76969 10.1161 1.851 9.906ZM5.0214 10.7982C5.2248 10.8537 5.4084 12.5766 4.7952 12.8214C5.2674 12.2364 4.6863 11.0016 4.9806 10.8105C4.9941 10.7985 5.0079 10.7943 5.0214 10.7982ZM1.5204 10.8501C1.4151 11.445 1.7697 12.0561 1.4349 12.8817C1.7472 14.0172 2.5659 12.2667 3.1212 12.4977C3.2073 12.2517 3.8136 12.4098 3.6048 12.9624C4.2498 13.1406 4.1022 12.7692 4.3395 12.8274C4.9929 13.1673 5.2599 12.459 5.0526 13.5324C5.4306 14.7318 7.2801 14.3256 7.4157 15.6723C7.626 16.8276 8.7243 16.7343 9.3885 17.3457C10.4583 17.6532 11.9466 17.9607 12.4524 19.0245C12.6768 20.3238 10.8744 20.8464 11.2944 22.2174C11.4594 23.7114 10.1994 23.7522 9.2319 24.2034C9.4461 25.02 8.4714 26.1579 8.1651 26.1753C8.2485 26.4708 7.7325 26.7633 7.7691 27.1074C6.90422 26.5896 6.09723 25.9807 5.3619 25.2912C4.7157 24.237 4.3023 23.0283 3.873 21.8793C3.1539 20.8992 2.2542 20.0037 1.9395 18.7761C1.4184 17.6901 1.1904 16.317 1.7079 15.2007C1.8417 14.7324 1.9002 13.2876 1.4823 13.9572C1.2207 13.7694 1.1394 13.2201 1.0887 12.7041C1.19035 12.077 1.33439 11.4576 1.5204 10.8501Z" fill="black"/>
</svg>
