<svg width="30" height="30" viewBox="0 0 30 30" fill="none" xmlns="http://www.w3.org/2000/svg">
<g id="heart">
<path id="Icon" fill-rule="evenodd" clip-rule="evenodd" d="M4.75867 7.758C5.88384 6.63317 7.40969 6.00128 9.00067 6.00128C10.5917 6.00128 12.1175 6.63317 13.2427 7.758L15.0007 9.5145L16.7587 7.758C17.3122 7.18494 17.9742 6.72784 18.7062 6.41339C19.4383 6.09894 20.2256 5.93342 21.0223 5.9265C21.8189 5.91957 22.609 6.07138 23.3464 6.37307C24.0838 6.67475 24.7537 7.12027 25.317 7.68363C25.8804 8.24698 26.3259 8.9169 26.6276 9.65427C26.9293 10.3917 27.0811 11.1817 27.0742 11.9784C27.0672 12.7751 26.9017 13.5624 26.5873 14.2944C26.2728 15.0264 25.8157 15.6885 25.2427 16.242L15.0007 26.4855L4.75867 16.242C3.63385 15.1168 3.00195 13.591 3.00195 12C3.00195 10.409 3.63385 8.88316 4.75867 7.758V7.758Z" stroke="black" stroke-width="2" stroke-linejoin="round"/>
</g>
</svg>
