<svg width="34" height="34" viewBox="0 0 34 34" fill="none" xmlns="http://www.w3.org/2000/svg">
<g id="ic:outline-telegram">
<path id="Vector" d="M16.9997 2.83337C9.17967 2.83337 2.83301 9.18004 2.83301 17C2.83301 24.82 9.17967 31.1667 16.9997 31.1667C24.8197 31.1667 31.1663 24.82 31.1663 17C31.1663 9.18004 24.8197 2.83337 16.9997 2.83337ZM23.573 12.4667C23.3605 14.705 22.4397 20.145 21.9722 22.6525C21.7738 23.715 21.3772 24.0692 21.0088 24.1117C20.1872 24.1825 19.5638 23.5734 18.7705 23.0492C17.5238 22.2275 16.8155 21.7175 15.6113 20.9242C14.2088 20.0034 15.1155 19.4934 15.923 18.6717C16.1355 18.4592 19.7622 15.1584 19.833 14.8609C19.8428 14.8158 19.8415 14.769 19.8292 14.7246C19.8169 14.6802 19.7938 14.6394 19.7622 14.6059C19.6772 14.535 19.5638 14.5634 19.4647 14.5775C19.3372 14.6059 17.3538 15.9234 13.4863 18.53C12.9197 18.9125 12.4097 19.1109 11.9563 19.0967C11.4463 19.0825 10.483 18.8134 9.76051 18.5725C8.86801 18.2892 8.17384 18.1334 8.23051 17.6375C8.25884 17.3825 8.61301 17.1275 9.27884 16.8584C13.4155 15.0592 16.1638 13.8692 17.538 13.3025C21.4763 11.6592 22.2838 11.3759 22.8222 11.3759C22.9355 11.3759 23.2047 11.4042 23.3747 11.5459C23.5163 11.6592 23.5588 11.815 23.573 11.9284C23.5588 12.0134 23.5872 12.2684 23.573 12.4667Z" fill="white"/>
</g>
</svg>
