<svg width="30" height="30" viewBox="0 0 30 30" fill="none" xmlns="http://www.w3.org/2000/svg">
<path d="M13.5938 3.75C11.7844 3.75 10.3125 5.22188 10.3125 7.03125C10.3125 8.84062 11.7844 10.3125 13.5938 10.3125C15.4031 10.3125 16.875 8.84062 16.875 7.03125C16.875 5.22188 15.4031 3.75 13.5938 3.75ZM13.5938 5.625C14.3691 5.625 15 6.25594 15 7.03125C15 7.80656 14.3691 8.4375 13.5938 8.4375C12.8184 8.4375 12.1875 7.80656 12.1875 7.03125C12.1875 6.25594 12.8184 5.625 13.5938 5.625ZM12.8306 11.2425C12.3881 11.1979 11.9441 11.3127 11.5786 11.5661C11.213 11.8196 10.9499 12.1952 10.8366 12.6253L9.43125 17.5687C9.34111 17.9294 9.36007 18.3086 9.48575 18.6585C9.61143 19.0083 9.83816 19.3129 10.1372 19.5338L13.1428 21.7294L13.8562 25.3125H9.33281L10.2984 23.9887C10.3641 23.8659 10.4212 23.7384 10.4672 23.6138L11.2425 21.4894L9.66281 20.3466L8.70281 22.9762C8.68754 23.0178 8.66937 23.0582 8.64844 23.0972L7.03312 25.3125H2.8125V27.1875H22.9556C23.8798 27.1887 24.7808 26.8985 25.5306 26.3583C26.2804 25.818 26.8408 25.0552 27.1322 24.1781L27.1875 24.0159L25.41 23.4225L25.3566 23.5837C25.1885 24.0873 24.8663 24.5252 24.4356 24.8355C24.0049 25.1458 23.4874 25.3126 22.9566 25.3125H19.6875V15H15.7088L14.9728 12.81C14.893 12.4984 14.7351 12.2123 14.514 11.9787C14.2929 11.7451 14.0158 11.5717 13.7091 11.475L13.2056 11.3194C13.0836 11.2809 12.9579 11.2551 12.8306 11.2425ZM12.6469 13.11L13.1784 13.3481L13.9144 15.4388C14.0151 15.8447 14.249 16.2052 14.5787 16.4625C14.9084 16.7198 15.3149 16.8591 15.7331 16.8581H17.8125V25.3125H15.7687L14.9869 21.3919C14.9071 20.9101 14.6424 20.4785 14.2491 20.1891L11.2425 18.0516L12.6469 13.11Z" fill="black"/>
</svg>
