<svg width="30" height="30" viewBox="0 0 30 30" fill="none" xmlns="http://www.w3.org/2000/svg">
<path d="M21.9691 6.23381C23.1895 6.23381 24.1789 5.24122 24.1789 4.0168C24.1789 2.79239 23.1895 1.7998 21.9691 1.7998C20.7486 1.7998 19.7593 2.79239 19.7593 4.0168C19.7593 5.24122 20.7486 6.23381 21.9691 6.23381Z" fill="black"/>
<path d="M7.9561 25.3208L0.600098 17.921L0.603098 19.2134L7.4497 26.1056C8.2363 26.9606 9.5839 25.9718 9.5839 25.9718L8.9377 25.2776C8.9377 25.2776 8.3011 25.6964 7.9717 25.34L7.9561 25.3208ZM0.600098 11.3996H8.4001V11.9996H0.600098V11.3996ZM28.5421 9.29604L29.4001 9.70224L20.8531 26.9996H19.9069L28.5421 9.29604ZM14.3587 7.88004L10.9189 11.8628C10.7167 12.1148 10.4065 12.272 10.0603 12.272C9.91393 12.272 9.76902 12.243 9.63386 12.1869C9.4987 12.1307 9.37594 12.0484 9.27261 11.9448C9.16929 11.8411 9.08742 11.7181 9.0317 11.5827C8.97598 11.4474 8.9475 11.3024 8.9479 11.156C8.9479 10.8224 9.0913 10.5248 9.3229 10.3214L13.0303 6.03744C13.1349 5.91141 13.2661 5.81 13.4144 5.74042C13.5627 5.67083 13.7245 5.63478 13.8883 5.63484L19.2571 5.63184C19.6519 5.63184 20.0047 5.79264 20.2657 6.04104L23.6887 9.47424L26.5249 6.63684C26.7305 6.46133 26.992 6.36495 27.2623 6.36504C27.8989 6.36504 28.4113 6.88224 28.4113 7.51704C28.4113 7.79484 28.3165 8.04684 28.1533 8.24664L24.7333 11.7026C23.6959 12.7436 22.8595 11.8598 22.8595 11.8598L20.7619 9.74604L17.4817 13.5488L20.4871 16.5626C20.4871 16.5626 21.1201 17.1518 20.7583 18.3266L19.0741 25.8542C19.0081 26.177 18.8329 26.4672 18.5779 26.6759C18.3229 26.8845 18.0038 26.9989 17.6743 26.9996C17.4863 26.9994 17.3002 26.9621 17.1266 26.89C16.953 26.8178 16.7953 26.7122 16.6625 26.5791C16.5298 26.446 16.4245 26.288 16.3528 26.1142C16.2811 25.9404 16.2443 25.7542 16.2445 25.5662C16.2445 25.4414 16.2571 25.3208 16.2907 25.2056L17.6743 19.0274L14.2609 15.7016L11.3239 18.9842C11.3239 18.9842 10.8475 19.5734 9.5875 19.5278L3.6319 19.538C3.30251 19.5435 2.98134 19.4351 2.72267 19.2311C2.46401 19.0271 2.28372 18.74 2.2123 18.4184C2.16935 18.2364 2.16305 18.0475 2.19377 17.863C2.22449 17.6785 2.29161 17.5019 2.39122 17.3435C2.49083 17.1852 2.62095 17.0482 2.774 16.9406C2.92705 16.833 3.09997 16.757 3.2827 16.7168C3.4033 16.6898 3.5239 16.6772 3.6415 16.6838L8.7655 16.6964L16.3405 7.88964L14.3587 7.88004Z" fill="black"/>
<path d="M27.495 27.1012C27.4932 27.6814 27.0126 28.2004 26.436 28.2004H9V28.8004H26.4336C27.4038 28.8058 28.1952 28.057 28.2 27.082L27.495 27.1012Z" fill="black"/>
</svg>
