<svg width="30" height="30" viewBox="0 0 30 30" fill="none" xmlns="http://www.w3.org/2000/svg">
<g id="material-symbols-light:share-outline">
<path id="Vector" d="M22.5025 26.875C21.6358 26.875 20.8979 26.5708 20.2887 25.9625C19.6796 25.3558 19.375 24.6183 19.375 23.75C19.375 23.5833 19.3892 23.4113 19.4175 23.2338C19.4467 23.0554 19.49 22.8875 19.5475 22.73L9.87 17.0288C9.56417 17.3738 9.20833 17.6425 8.8025 17.835C8.39667 18.0275 7.9625 18.1242 7.5 18.125C6.63167 18.125 5.89417 17.8217 5.2875 17.215C4.67917 16.6075 4.375 15.87 4.375 15.0025C4.375 14.135 4.67917 13.3971 5.2875 12.7888C5.89583 12.1804 6.63333 11.8758 7.5 11.875C7.96333 11.875 8.3975 11.9717 8.8025 12.165C9.2075 12.3583 9.56333 12.6271 9.87 12.9713L19.5487 7.26875C19.4904 7.11208 19.4471 6.94458 19.4187 6.76625C19.3896 6.58875 19.375 6.41667 19.375 6.25C19.375 5.38167 19.6787 4.64417 20.2862 4.0375C20.8929 3.42917 21.63 3.125 22.4975 3.125C23.365 3.125 24.1029 3.42875 24.7112 4.03625C25.3196 4.64375 25.6242 5.38083 25.625 6.2475C25.6258 7.11417 25.3217 7.85208 24.7125 8.46125C24.1067 9.07042 23.3692 9.375 22.5 9.375C22.0367 9.375 21.6025 9.27833 21.1975 9.085C20.7925 8.89167 20.4367 8.62292 20.13 8.27875L10.4525 13.9813C10.51 14.1379 10.5529 14.3046 10.5812 14.4813C10.6104 14.6588 10.625 14.83 10.625 14.995C10.625 15.16 10.6104 15.3329 10.5812 15.5138C10.5521 15.6946 10.5087 15.8633 10.4512 16.02L20.13 21.7213C20.4358 21.3771 20.7917 21.1083 21.1975 20.915C21.6033 20.7217 22.0375 20.625 22.5 20.625C23.3683 20.625 24.1058 20.9288 24.7125 21.5363C25.3208 22.1429 25.625 22.88 25.625 23.7475C25.625 24.615 25.3217 25.3529 24.715 25.9613C24.1083 26.5696 23.3708 26.8742 22.5025 26.875ZM22.5 8.125C23.0142 8.125 23.4554 7.94125 23.8237 7.57375C24.1912 7.20542 24.375 6.76417 24.375 6.25C24.375 5.73583 24.1912 5.29458 23.8237 4.92625C23.4554 4.55875 23.0142 4.375 22.5 4.375C21.9858 4.375 21.5446 4.55875 21.1762 4.92625C20.8087 5.29458 20.625 5.73583 20.625 6.25C20.625 6.76417 20.8087 7.20542 21.1762 7.57375C21.5446 7.94125 21.9858 8.125 22.5 8.125ZM7.5 16.875C8.01417 16.875 8.45542 16.6913 8.82375 16.3238C9.19125 15.9554 9.375 15.5142 9.375 15C9.375 14.4858 9.19125 14.0446 8.82375 13.6763C8.45625 13.3079 8.015 13.1242 7.5 13.125C6.985 13.1258 6.54375 13.3096 6.17625 13.6763C5.80875 14.0446 5.625 14.4858 5.625 15C5.625 15.5142 5.80875 15.9554 6.17625 16.3238C6.54375 16.6921 6.985 16.8758 7.5 16.875ZM22.5 25.625C23.0142 25.625 23.4554 25.4413 23.8237 25.0738C24.1912 24.7054 24.375 24.2642 24.375 23.75C24.375 23.2358 24.1912 22.7946 23.8237 22.4263C23.4554 22.0588 23.0142 21.875 22.5 21.875C21.9858 21.875 21.5446 22.0588 21.1762 22.4263C20.8087 22.7946 20.625 23.2358 20.625 23.75C20.625 24.2642 20.8087 24.7054 21.1762 25.0738C21.5446 25.4413 21.9858 25.625 22.5 25.625Z" fill="black"/>
</g>
</svg>
