<svg width="30" height="30" viewBox="0 0 30 30" fill="none" xmlns="http://www.w3.org/2000/svg">
<path fill-rule="evenodd" clip-rule="evenodd" d="M15 4.9997C14.5075 4.9997 14.0199 5.0967 13.5649 5.28516C13.11 5.47361 12.6966 5.74983 12.3483 6.09805C12.0001 6.44627 11.7239 6.85967 11.5355 7.31464C11.347 7.76961 11.25 8.25725 11.25 8.7497C11.25 9.24216 11.347 9.7298 11.5355 10.1848C11.7239 10.6397 12.0001 11.0531 12.3483 11.4014C12.6966 11.7496 13.11 12.0258 13.5649 12.2143C14.0199 12.4027 14.5075 12.4997 15 12.4997C15.9946 12.4997 16.9484 12.1046 17.6517 11.4014C18.3549 10.6981 18.75 9.74427 18.75 8.7497C18.75 7.75514 18.3549 6.80132 17.6517 6.09805C16.9484 5.39479 15.9946 4.9997 15 4.9997ZM8.75 8.7497C8.75024 7.56717 9.08596 6.40896 9.71817 5.40961C10.3504 4.41025 11.2531 3.61076 12.3216 3.10399C13.39 2.59721 14.5803 2.40395 15.7542 2.54665C16.9281 2.68935 18.0374 3.16216 18.9533 3.91015C19.8693 4.65815 20.5542 5.65064 20.9285 6.77236C21.3029 7.89407 21.3514 9.09898 21.0683 10.2471C20.7852 11.3953 20.1822 12.4396 19.3293 13.2587C18.4764 14.0778 17.4086 14.6382 16.25 14.8747V21.2497C16.25 21.5812 16.1183 21.8992 15.8839 22.1336C15.6495 22.368 15.3315 22.4997 15 22.4997C14.6685 22.4997 14.3505 22.368 14.1161 22.1336C13.8817 21.8992 13.75 21.5812 13.75 21.2497V14.8747C12.3383 14.5865 11.0695 13.8195 10.1584 12.7033C9.24723 11.5872 8.74971 10.1905 8.75 8.7497ZM11.8612 20.1247C11.8861 20.2871 11.8787 20.4527 11.8395 20.6122C11.8003 20.7717 11.7301 20.9219 11.6328 21.0543C11.5355 21.1866 11.4131 21.2985 11.2726 21.3835C11.132 21.4685 10.9761 21.525 10.8138 21.5497C9.21625 21.7922 7.9475 22.161 7.11375 22.5685C5.58875 23.3147 7.37125 23.851 8.30125 24.141C9.96 24.6597 12.3287 24.9997 15 24.9997C17.6713 24.9997 20.04 24.6597 21.6987 24.141C22.635 23.8485 24.4112 23.316 22.8862 22.5685C22.0525 22.161 20.7838 21.7935 19.1862 21.5497C19.0221 21.5272 18.864 21.4722 18.7213 21.3881C18.5786 21.3039 18.454 21.1922 18.3548 21.0595C18.2556 20.9267 18.1838 20.7756 18.1436 20.6149C18.1033 20.4541 18.0954 20.287 18.1204 20.1232C18.1453 19.9593 18.2026 19.8021 18.2888 19.6606C18.3751 19.5192 18.4886 19.3962 18.6228 19.299C18.757 19.2018 18.9092 19.1322 19.0705 19.0944C19.2318 19.0565 19.3991 19.0511 19.5625 19.0785C21.2975 19.341 22.84 19.7622 23.9862 20.3235C25.0912 20.8647 26.25 21.776 26.25 23.1247C26.25 24.1385 25.595 24.8747 24.9575 25.346C22.27 27.331 18.17 27.4997 15 27.4997C12.1475 27.4997 9.51625 27.1397 7.55625 26.5272C5.99375 26.0397 3.75 25.0772 3.75 23.1247C3.75 21.7747 4.90875 20.8647 6.01375 20.3247C7.16 19.7622 8.70375 19.3422 10.4362 19.0785C10.5986 19.0536 10.7643 19.061 10.9238 19.1002C11.0833 19.1394 11.2335 19.2096 11.3658 19.3069C11.4982 19.4042 11.61 19.5266 11.6951 19.6671C11.7801 19.8077 11.8365 19.9623 11.8612 20.1247Z" fill="black"/>
</svg>
