<svg width="30" height="30" viewBox="0 0 30 30" fill="none" xmlns="http://www.w3.org/2000/svg">
<path d="M21.4455 13.3185L24.9729 9.99971L24.9881 9.98448C25.6475 9.32511 26.0179 8.43083 26.0179 7.49834C26.0179 6.56586 25.6475 5.67158 24.9881 5.01221C24.3287 4.35285 23.4344 3.98242 22.502 3.98242C21.5695 3.98242 20.6752 4.35285 20.0158 5.01221L20.0006 5.02745L16.6818 8.55479L6.80294 4.96299C6.6773 4.91725 6.54122 4.90828 6.41067 4.93713C6.28011 4.96598 6.16049 5.03146 6.06583 5.12588L3.25333 7.93838C3.1792 8.01192 3.12239 8.10104 3.08701 8.19928C3.05163 8.29751 3.03857 8.40239 3.04878 8.5063C3.05899 8.61021 3.09222 8.71055 3.14604 8.80001C3.19987 8.88948 3.27295 8.96584 3.35997 9.02354L11.085 14.1728L9.08458 16.172H6.5627C6.37628 16.1721 6.19756 16.2463 6.06583 16.3782L3.25333 19.1907C3.17084 19.2729 3.11004 19.3742 3.07638 19.4857C3.04273 19.5971 3.03727 19.7152 3.06051 19.8293C3.08374 19.9433 3.13493 20.0499 3.2095 20.1393C3.28406 20.2287 3.37965 20.2982 3.4877 20.3415L7.8963 22.0993L9.65411 26.5009V26.5149C9.72498 26.6869 9.86108 26.8237 10.0326 26.8955C10.2041 26.9673 10.3971 26.9683 10.5693 26.8981C10.6611 26.8611 10.7438 26.8047 10.8119 26.7329L13.6139 23.931C13.7479 23.8014 13.8251 23.624 13.8283 23.4376V20.9157L15.8287 18.9153L20.9768 26.6403C21.0345 26.7268 21.1107 26.7993 21.1999 26.8527C21.289 26.9062 21.3889 26.9392 21.4924 26.9494C21.5958 26.9596 21.7002 26.9467 21.7981 26.9117C21.896 26.8767 21.9849 26.8205 22.0584 26.747L24.8709 23.9345C24.9653 23.8398 25.0308 23.7202 25.0597 23.5896C25.0885 23.4591 25.0795 23.323 25.0338 23.1974L21.4455 13.3185ZM21.6729 25.1462L16.5236 17.4212C16.4659 17.3347 16.3897 17.2621 16.3006 17.2086C16.2114 17.1551 16.1115 17.1221 16.008 17.1118H15.9389C15.7525 17.112 15.5737 17.1862 15.442 17.3181L12.6295 20.1306C12.4977 20.2615 12.4232 20.4393 12.4221 20.6251V23.147L10.5705 24.9985L9.09044 21.3013C9.0552 21.2127 9.00234 21.1323 8.93506 21.0648C8.86777 20.9973 8.78747 20.9442 8.69903 20.9087L5.00176 19.4298L6.8545 17.5782H9.3752C9.4677 17.5783 9.55931 17.5601 9.64478 17.5247C9.73024 17.4893 9.80788 17.4374 9.87325 17.372L12.6857 14.5595C12.7592 14.4859 12.8154 14.3969 12.8503 14.299C12.8852 14.2011 12.8979 14.0966 12.8876 13.9932C12.8773 13.8897 12.8442 13.7898 12.7906 13.7007C12.7371 13.6116 12.6644 13.5355 12.5779 13.4778L4.85411 8.32745L6.74317 6.43721L16.6408 10.0349C16.77 10.0818 16.9102 10.0898 17.0439 10.058C17.1776 10.0261 17.299 9.95573 17.3932 9.85557L21.026 6.0001C21.4282 5.63963 21.9533 5.44715 22.4931 5.46232C23.033 5.4775 23.5465 5.69917 23.9278 6.08166C24.3091 6.46415 24.5291 6.97833 24.5426 7.51824C24.5561 8.05815 24.3619 8.58266 24.0002 8.9837L20.1447 12.6165C20.0446 12.7107 19.9742 12.8321 19.9424 12.9658C19.9105 13.0995 19.9185 13.2397 19.9654 13.3689L23.5631 23.2606L21.6729 25.1462Z" fill="black"/>
</svg>
