<svg width="36" height="36" viewBox="0 0 36 36" fill="none" xmlns="http://www.w3.org/2000/svg">
<g id="ph:map-pin">
<path id="Vector" d="M19.424 10.505C18.5179 10.3087 17.574 10.3855 16.7116 10.7257C15.8491 11.0659 15.107 11.6542 14.5789 12.4162C14.0508 13.1782 13.7606 14.0797 13.7448 15.0066C13.7291 15.9336 13.9886 16.8444 14.4905 17.6239C14.9924 18.4034 15.7142 19.0165 16.5646 19.3858C17.415 19.7551 18.3557 19.8639 19.268 19.6985C20.1802 19.5331 21.0229 19.1009 21.6895 18.4565C22.3561 17.8122 22.8166 16.9847 23.0129 16.0786C23.2761 14.8636 23.0458 13.5937 22.3728 12.5485C21.6997 11.5032 20.639 10.7681 19.424 10.505ZM17.8362 17.835C17.2926 17.7172 16.796 17.4409 16.4094 17.0409C16.0228 16.6409 15.7635 16.1353 15.6643 15.588C15.565 15.0407 15.6303 14.4762 15.8519 13.966C16.0734 13.4557 16.4413 13.0227 16.909 12.7215C17.3767 12.4204 17.9232 12.2647 18.4794 12.2741C19.0356 12.2835 19.5764 12.4577 20.0336 12.7745C20.4908 13.0914 20.8438 13.5367 21.0479 14.0542C21.2521 14.5716 21.2982 15.138 21.1804 15.6816C21.0225 16.4106 20.5814 17.0471 19.9543 17.4509C19.3271 17.8547 18.5652 17.9929 17.8362 17.835ZM20.6149 5.00746C17.9421 4.43166 15.1501 4.93956 12.8513 6.41974C10.5525 7.89992 8.93476 10.2315 8.3529 12.903C7.57388 16.4992 8.41006 20.6708 10.7753 24.9686C11.8361 26.9089 13.1096 28.7251 14.5724 30.3835C14.7031 30.5248 14.8741 30.6224 15.0622 30.6632C15.2503 30.7039 15.4464 30.6858 15.6238 30.6112C17.6386 29.7056 19.5465 28.5786 21.3122 27.2511C25.2393 24.3163 27.7314 20.8657 28.5104 17.2694C29.0862 14.5967 28.5783 11.8046 27.0981 9.50586C25.6179 7.20709 23.2863 5.58932 20.6149 5.00746ZM15.5041 28.6009C13.9334 26.7019 8.76505 19.8568 10.1854 13.2999C10.6591 11.1129 11.9823 9.20361 13.8638 7.99213C15.7452 6.78065 18.0309 6.3662 20.2179 6.83996C22.405 7.31371 24.3142 8.63685 25.5257 10.5183C26.7372 12.3998 27.1516 14.6854 26.6779 16.8725C25.258 23.4271 17.7198 27.5221 15.5041 28.6009Z" fill="black"/>
</g>
</svg>
