<svg width="34" height="34" viewBox="0 0 34 34" fill="none" xmlns="http://www.w3.org/2000/svg">
<g id="ri:instagram-fill">
<path id="Vector" d="M18.4568 2.83337C20.0506 2.83762 20.8595 2.84612 21.5579 2.86596L21.8327 2.87587C22.1501 2.88721 22.4631 2.90137 22.8414 2.91837C24.3487 2.98921 25.3772 3.22721 26.2796 3.57712C27.2146 3.93696 28.0023 4.42429 28.79 5.21054C29.5106 5.91849 30.0681 6.77521 30.4234 7.72087C30.7733 8.62329 31.0113 9.65179 31.0821 11.1605C31.0991 11.5374 31.1133 11.8505 31.1246 12.1692L31.1331 12.444C31.1544 13.141 31.1629 13.95 31.1657 15.5437L31.1671 16.6005V18.4564C31.1706 19.4897 31.1597 20.523 31.1346 21.556L31.1261 21.8309C31.1147 22.1496 31.1006 22.4627 31.0836 22.8395C31.0127 24.3483 30.7719 25.3754 30.4234 26.2792C30.0681 27.2249 29.5106 28.0816 28.79 28.7895C28.082 29.5102 27.2253 30.0676 26.2796 30.423C25.3772 30.7729 24.3487 31.0109 22.8414 31.0817L21.8327 31.1242L21.5579 31.1327C20.8595 31.1525 20.0506 31.1625 18.4568 31.1653L17.4 31.1667H15.5456C14.5118 31.1704 13.478 31.1595 12.4445 31.1341L12.1696 31.1256C11.8333 31.1129 11.4971 31.0982 11.161 31.0817C9.65365 31.0109 8.62515 30.7729 7.72131 30.423C6.77616 30.0675 5.91994 29.51 5.2124 28.7895C4.49124 28.0817 3.9333 27.225 3.57756 26.2792C3.22765 25.3768 2.98965 24.3483 2.91881 22.8395L2.87631 21.8309L2.86923 21.556C2.84312 20.523 2.83131 19.4897 2.83381 18.4564V15.5437C2.82989 14.5104 2.84028 13.4771 2.86498 12.444L2.8749 12.1692C2.88623 11.8505 2.9004 11.5374 2.9174 11.1605C2.98823 9.65179 3.22623 8.62471 3.57615 7.72087C3.93271 6.77482 4.49163 5.91808 5.21381 5.21054C5.92095 4.49024 6.77666 3.93281 7.72131 3.57712C8.62515 3.22721 9.65223 2.98921 11.161 2.91837C11.5378 2.90137 11.8523 2.88721 12.1696 2.87587L12.4445 2.86737C13.4775 2.8422 14.5108 2.83134 15.5441 2.83479L18.4568 2.83337ZM17.0005 9.91671C15.1219 9.91671 13.3202 10.663 11.9918 11.9914C10.6634 13.3197 9.91715 15.1214 9.91715 17C9.91715 18.8787 10.6634 20.6803 11.9918 22.0087C13.3202 23.3371 15.1219 24.0834 17.0005 24.0834C18.8791 24.0834 20.6808 23.3371 22.0092 22.0087C23.3375 20.6803 24.0838 18.8787 24.0838 17C24.0838 15.1214 23.3375 13.3197 22.0092 11.9914C20.6808 10.663 18.8791 9.91671 17.0005 9.91671ZM17.0005 12.75C17.5586 12.7499 18.1113 12.8598 18.6269 13.0733C19.1426 13.2868 19.6112 13.5998 20.0059 13.9943C20.4006 14.3889 20.7137 14.8574 20.9274 15.373C21.1411 15.8886 21.2511 16.4412 21.2512 16.9993C21.2513 17.5575 21.1414 18.1101 20.9279 18.6258C20.7145 19.1415 20.4015 19.61 20.0069 20.0047C19.6123 20.3995 19.1438 20.7126 18.6282 20.9263C18.1126 21.1399 17.56 21.2499 17.0019 21.25C15.8747 21.25 14.7937 20.8023 13.9967 20.0052C13.1997 19.2082 12.7519 18.1272 12.7519 17C12.7519 15.8729 13.1997 14.7919 13.9967 13.9948C14.7937 13.1978 15.8747 12.75 17.0019 12.75M24.4394 7.79171C23.9697 7.79171 23.5193 7.97828 23.1872 8.31037C22.8551 8.64247 22.6686 9.09289 22.6686 9.56254C22.6686 10.0322 22.8551 10.4826 23.1872 10.8147C23.5193 11.1468 23.9697 11.3334 24.4394 11.3334C24.909 11.3334 25.3595 11.1468 25.6916 10.8147C26.0237 10.4826 26.2102 10.0322 26.2102 9.56254C26.2102 9.09289 26.0237 8.64247 25.6916 8.31037C25.3595 7.97828 24.909 7.79171 24.4394 7.79171Z" fill="white"/>
</g>
</svg>
