<svg width="24" height="25" viewBox="0 0 24 25" fill="none" xmlns="http://www.w3.org/2000/svg">
<g id="star-02">
<path id="Icon" d="M11.4946 3.24994C11.7012 2.8314 12.298 2.8314 12.5046 3.24994L15.1786 8.66807C15.2606 8.83427 15.4192 8.94947 15.6026 8.97613L21.5818 9.84496C22.0437 9.91208 22.2282 10.4797 21.8939 10.8055L17.5673 15.0229C17.4346 15.1523 17.374 15.3387 17.4053 15.5214L18.4267 21.4765C18.5056 21.9365 18.0228 22.2873 17.6096 22.0701L12.2616 19.2585C12.0976 19.1722 11.9016 19.1722 11.7375 19.2585L6.38953 22.0701C5.9764 22.2873 5.49355 21.9365 5.57245 21.4765L6.59383 15.5214C6.62516 15.3387 6.5646 15.1523 6.43187 15.0229L2.10525 10.8055C1.77102 10.4797 1.95545 9.91208 2.41734 9.84496L8.3966 8.97613C8.58001 8.94947 8.73857 8.83427 8.8206 8.66807L11.4946 3.24994Z" fill="#FAAF00"/>
</g>
</svg>
