<svg width="24" height="25" viewBox="0 0 24 25" fill="none" xmlns="http://www.w3.org/2000/svg">
<g id="Icon">
<g id="Icon_2">
<path fill-rule="evenodd" clip-rule="evenodd" d="M13.055 2.93612C12.8575 2.93955 12.6616 3.04415 12.56 3.24994L9.88603 8.66807C9.804 8.83427 9.64544 8.94947 9.46202 8.97612L3.48277 9.84496C3.02088 9.91208 2.83645 10.4797 3.17067 10.8055L7.4973 15.0229C7.63003 15.1523 7.69059 15.3387 7.65926 15.5214L6.63788 21.4765C6.55898 21.9365 7.04183 22.2873 7.45496 22.0701L12.803 19.2585C12.8819 19.217 12.9683 19.1954 13.055 19.1939V2.93612Z" fill="#FAAF00"/>
<path d="M13.055 2.93612C13.2592 2.93258 13.465 3.03719 13.57 3.24994L16.244 8.66807C16.326 8.83427 16.4846 8.94947 16.668 8.97612L22.6473 9.84496C23.1091 9.91208 23.2936 10.4797 22.9594 10.8055L18.6327 15.0229C18.5 15.1523 18.4394 15.3387 18.4708 15.5214L19.4921 21.4765C19.571 21.9365 19.0882 22.2873 18.6751 22.0701L13.3271 19.2585C13.242 19.2138 13.1483 19.1922 13.055 19.1939M13.055 2.93612C12.8575 2.93955 12.6616 3.04415 12.56 3.24994L9.88603 8.66807C9.804 8.83427 9.64544 8.94947 9.46202 8.97612L3.48277 9.84496C3.02088 9.91208 2.83645 10.4797 3.17067 10.8055L7.4973 15.0229C7.63003 15.1523 7.69059 15.3387 7.65926 15.5214L6.63788 21.4765C6.55898 21.9365 7.04183 22.2873 7.45496 22.0701L12.803 19.2585C12.8819 19.217 12.9683 19.1954 13.055 19.1939M13.055 2.93612V19.1939" stroke="#FAAF00" stroke-width="0.5" stroke-linejoin="round"/>
</g>
</g>
</svg>
