<svg width="227" height="80" viewBox="0 0 227 80" fill="none" xmlns="http://www.w3.org/2000/svg">
<g id="tripbook 1">
<path id="Vector" d="M69.2397 52.0965V31.0751H62.1162V27.3735H80.5036V31.0751H73.3936V52.0965H69.2397Z" fill="white"/>
<path id="Vector_2" d="M81.5703 52.0965V39.2003C81.5703 37.6009 82.0223 36.3442 82.9263 35.4393C83.8303 34.5345 85.0643 34.0684 86.6463 34.0684H90.9403V37.5277H87.3785C87.1388 37.5137 86.8988 37.5503 86.6739 37.6353C86.449 37.7202 86.2441 37.8517 86.0722 38.0213C85.9121 38.2035 85.7896 38.4162 85.712 38.6469C85.6344 38.8776 85.6032 39.1217 85.6202 39.3648V52.0965H81.5703Z" fill="white"/>
<path id="Vector_3" d="M94.7012 52.0965V34.0684H98.7149V52.0965H94.7012Z" fill="white"/>
<path id="Vector_4" d="M111.742 33.1772C113.067 33.1543 114.383 33.3886 115.62 33.8673C116.727 34.3024 117.724 34.9833 118.536 35.8597C119.352 36.7552 119.982 37.8073 120.389 38.9535C120.832 40.2164 121.05 41.5484 121.035 42.8882C121.071 44.5514 120.692 46.1971 119.932 47.6728C119.236 49.0052 118.183 50.1135 116.895 50.8717C115.528 51.6551 113.977 52.0514 112.406 52.0188C111.6 52.024 110.798 51.8927 110.033 51.6303C109.303 51.3818 108.619 51.0127 108.009 50.5381C107.421 50.0901 106.922 49.5334 106.54 48.8975H106.508V59.3808H102.49V42.8196C102.439 41.0286 102.842 39.2541 103.66 37.6648C104.405 36.2599 105.539 35.1052 106.924 34.3425C108.405 33.545 110.064 33.1438 111.742 33.1772ZM111.742 36.6366C110.793 36.6232 109.86 36.8883 109.057 37.3998C108.258 37.9105 107.616 38.637 107.204 39.4973C106.766 40.4703 106.54 41.5268 106.54 42.5957C106.54 43.6646 106.766 44.7211 107.204 45.6941C107.612 46.5635 108.254 47.2986 109.057 47.8145C109.87 48.3261 110.812 48.5895 111.769 48.5731C112.729 48.5924 113.674 48.3219 114.481 47.7962C115.271 47.2695 115.905 46.5369 116.316 45.6758C116.77 44.7182 116.996 43.6665 116.976 42.6048C116.998 41.5313 116.772 40.4674 116.316 39.4973C115.903 38.638 115.261 37.9118 114.463 37.3998C113.648 36.8848 112.703 36.6198 111.742 36.6366Z" fill="white"/>
<path id="Vector_5" d="M124.8 51.9913V27.273H138.283C139.415 27.2507 140.533 27.5313 141.524 28.0864C142.452 28.6134 143.225 29.3818 143.761 30.3119C144.324 31.3104 144.608 32.4443 144.584 33.5931C144.585 34.4102 144.411 35.2178 144.073 35.9603C143.746 36.7044 143.274 37.3743 142.685 37.9299C142.098 38.4857 141.41 38.9231 140.66 39.2186C141.533 39.471 142.34 39.9176 143.02 40.5256C143.704 41.1345 144.256 41.8797 144.643 42.7145C145.041 43.5721 145.243 44.5091 145.235 45.4564C145.256 46.6437 144.961 47.8148 144.38 48.8473C143.823 49.8227 143.014 50.6267 142.039 51.1733C140.998 51.7535 139.824 52.0466 138.636 52.0233L124.8 51.9913ZM128.958 37.6191H137.004C137.621 37.6287 138.23 37.4709 138.767 37.1621C139.274 36.873 139.695 36.4516 139.987 35.942C140.282 35.4465 140.438 34.8795 140.439 34.3014C140.444 33.8612 140.361 33.4245 140.196 33.0173C140.03 32.6102 139.786 32.2408 139.476 31.9312C139.167 31.6217 138.798 31.3782 138.394 31.2154C137.989 31.0527 137.557 30.9738 137.121 30.9837H128.985L128.958 37.6191ZM128.958 48.2486H137.515C138.16 48.2659 138.798 48.1081 139.363 47.7916C139.89 47.4823 140.321 47.0294 140.606 46.4847C140.898 45.9481 141.053 45.3467 141.058 44.7344C141.065 44.1221 140.909 43.5193 140.606 42.9887C140.289 42.4287 139.827 41.9668 139.269 41.6527C138.712 41.3387 138.08 41.1844 137.442 41.2065H128.963L128.958 48.2486Z" fill="white"/>
<path id="Vector_6" d="M156.638 52.0964C154.927 52.1282 153.238 51.6959 151.748 50.8443C150.332 50.0127 149.157 48.82 148.34 47.3853C147.524 45.9506 147.094 44.3242 147.094 42.6688C147.094 41.0135 147.524 39.3871 148.34 37.9524C149.157 36.5177 150.332 35.3249 151.748 34.4933C153.243 33.6718 154.918 33.2415 156.62 33.2415C158.322 33.2415 159.997 33.6718 161.493 34.4933C162.887 35.3034 164.049 36.4655 164.865 37.8659C165.489 38.9411 165.898 40.1305 166.066 41.3657C166.235 42.6009 166.16 43.8577 165.847 45.0637C165.534 46.2697 164.988 47.4013 164.241 48.3933C163.493 49.3853 162.56 50.2183 161.493 50.8443C160.015 51.6937 158.338 52.1261 156.638 52.0964ZM156.638 48.6371C157.65 48.6601 158.646 48.3837 159.504 47.8419C160.323 47.3183 160.983 46.5767 161.412 45.6986C161.849 44.7507 162.076 43.7173 162.076 42.6711C162.076 41.6249 161.849 40.5915 161.412 39.6436C160.991 38.7644 160.339 38.0196 159.527 37.4912C158.657 36.9709 157.665 36.6964 156.654 36.6964C155.644 36.6964 154.652 36.9709 153.782 37.4912C152.978 38.0224 152.326 38.7585 151.892 39.6253C151.446 40.5708 151.214 41.6052 151.214 42.6528C151.214 43.7005 151.446 44.7349 151.892 45.6804C152.321 46.5568 152.973 47.3015 153.782 47.8373C154.635 48.3831 155.629 48.6629 156.638 48.6416V48.6371Z" fill="white"/>
<path id="Vector_7" d="M177.508 52.0965C175.796 52.1289 174.108 51.6965 172.618 50.8443C171.201 50.0137 170.024 48.8212 169.207 47.3864C168.389 45.9516 167.959 44.3247 167.959 42.6688C167.959 41.0129 168.389 39.3861 169.207 37.9513C170.024 36.5164 171.201 35.324 172.618 34.4934C174.112 33.6718 175.786 33.2415 177.488 33.2415C179.189 33.2415 180.863 33.6718 182.358 34.4934C183.753 35.3021 184.915 36.4645 185.73 37.8659C186.355 38.9411 186.763 40.1305 186.932 41.3657C187.1 42.601 187.026 43.8577 186.712 45.0637C186.399 46.2698 185.853 47.4013 185.106 48.3933C184.359 49.3854 183.425 50.2183 182.358 50.8443C180.881 51.6929 179.206 52.1253 177.508 52.0965ZM177.508 48.6371C178.518 48.6606 179.513 48.3841 180.369 47.8419C181.179 47.3163 181.831 46.5767 182.254 45.7032C182.692 44.7553 182.919 43.7219 182.919 42.6757C182.919 41.6295 182.692 40.5961 182.254 39.6482C181.834 38.769 181.182 38.0242 180.369 37.4958C179.5 36.9755 178.507 36.701 177.497 36.701C176.486 36.701 175.494 36.9755 174.624 37.4958C173.82 38.026 173.17 38.7624 172.74 39.6299C172.29 40.5745 172.057 41.6093 172.057 42.6574C172.057 43.7056 172.29 44.7403 172.74 45.685C173.164 46.5624 173.815 47.3076 174.624 47.8419C175.486 48.3906 176.49 48.6689 177.508 48.6417V48.6371Z" fill="white"/>
<path id="Vector_8" d="M188.857 52.0964V26.3132H192.871V41.2887H196.713L201.188 34.082H205.622L200.623 41.9239C202.147 42.4306 203.459 43.4375 204.352 44.7846C205.254 46.1325 205.727 47.7271 205.708 49.3545V52.0964H201.69V49.3545C201.699 48.5442 201.494 47.7462 201.098 47.0421C200.715 46.3605 200.159 45.7943 199.488 45.4015C198.785 44.9844 197.981 44.7709 197.165 44.7846H192.871V52.0964H188.857Z" fill="white"/>
<path id="Vector_9" d="M99.2667 27.8762C99.4283 27.5476 99.5265 27.1909 99.556 26.8251C99.5828 26.388 99.508 25.9507 99.3376 25.548C99.1673 25.1454 98.906 24.7886 98.5749 24.5064C98.2437 24.2241 97.8518 24.0241 97.4305 23.9224C97.0091 23.8207 96.5701 23.8201 96.1485 23.9207C95.727 24.0213 95.3345 24.2203 95.0026 24.5017C94.6707 24.7831 94.4086 25.1392 94.2372 25.5414C94.0658 25.9436 93.9899 26.3808 94.0156 26.8179C94.0413 27.2551 94.1678 27.6801 94.3851 28.059C94.4755 28.2189 94.6834 28.6165 94.81 28.7947C94.9365 28.973 96.2564 30.7278 96.6722 31.2808C96.6866 31.2997 96.7051 31.3151 96.7262 31.3256C96.7474 31.3362 96.7707 31.3417 96.7943 31.3417C96.8179 31.3417 96.8412 31.3362 96.8623 31.3256C96.8835 31.3151 96.902 31.2997 96.9163 31.2808C97.3096 30.7598 98.2949 29.4071 98.6158 28.9547C98.853 28.6081 99.0704 28.248 99.2667 27.8762Z" fill="white"/>
<path id="Vector_10" d="M26.2642 27.6384H22.3589C21.5199 29.8134 21.1765 32.1515 21.3541 34.4791C21.5318 36.8067 22.2259 39.0639 23.3849 41.083C23.8866 41.9512 25.0392 44.1722 25.7353 45.1501C25.8076 45.2552 25.9884 45.4974 26.2461 45.8493L26.2642 27.6384Z" fill="white"/>
<path id="Vector_11" d="M47.2416 45.5113C47.2507 44.5502 47.042 43.5997 46.6314 42.7328C46.2483 41.9375 45.6615 41.2606 44.9318 40.7724C44.1881 40.2865 43.3176 40.0366 42.4323 40.0549C41.5426 40.0382 40.667 40.281 39.9101 40.7541C39.174 41.2307 38.5814 41.9025 38.197 42.6963C37.7949 43.6 37.5869 44.5797 37.5869 45.5707C37.5869 46.5617 37.7949 47.5414 38.197 48.4452C38.5788 49.2407 39.172 49.9131 39.9101 50.3873C40.6535 50.8613 41.5174 51.1059 42.3961 51.0911C42.6994 51.0887 43.0019 51.0597 43.3001 51.0043C44.7872 48.9616 46.1342 47.0925 46.8619 46.0688L47.2416 45.5113Z" fill="white"/>
<path id="Vector_12" d="M38.866 17.8727C36.2977 17.5035 33.6787 17.7977 31.2531 18.7278C28.8276 19.6579 26.6744 21.1937 24.9941 23.192H39.7926V27.6385H31.2363V52.5534L36.0681 58.9512C36.1474 59.0572 36.2498 59.1432 36.3675 59.2024C36.4851 59.2616 36.6147 59.2924 36.7461 59.2924C36.8776 59.2924 37.0072 59.2616 37.1248 59.2024C37.2425 59.1432 37.3449 59.0572 37.4241 58.9512C38.2603 57.8453 39.5666 56.0767 40.9678 54.1711C39.9067 54.0371 38.8796 53.7039 37.9394 53.1886C36.658 52.4787 35.6088 51.4068 34.9201 50.1039C34.1701 48.6369 33.7985 47.0022 33.8398 45.3513V30.0605H37.5643V39.7578H37.5959C37.9464 39.1641 38.4068 38.6443 38.9519 38.2269C39.5158 37.7863 40.1482 37.4434 40.8232 37.2123C41.5308 36.9705 42.273 36.8485 43.0199 36.8513C44.471 36.8267 45.9016 37.1994 47.1602 37.9298C48.3516 38.6291 49.3256 39.6518 49.9717 40.8819L50.0123 40.9688C50.2745 40.5118 50.4643 40.1828 50.4643 40.1005C51.2825 38.1903 51.9198 36.5634 52.0554 34.2511C52.3214 30.3389 51.107 26.4708 48.6582 23.4299C46.2094 20.3889 42.709 18.4025 38.866 17.8727Z" fill="white"/>
</g>
</svg>
