<svg width="20" height="20" viewBox="0 0 20 20" fill="none" xmlns="http://www.w3.org/2000/svg">
<g id="hugeicons:beach">
<path id="Vector" d="M1.66699 13.1251C1.66699 13.1251 3.16283 12.5001 5.83366 12.5001C10.0003 12.5001 13.3337 15.0001 18.3337 15.0001M1.66699 17.5001H18.3337M12.0837 7.91675L13.7503 14.1667M10.2387 2.50008L10.0003 1.66675M10.4953 2.69008C8.12366 3.37008 6.58283 5.71008 6.67033 8.22925C6.68866 8.75258 6.69783 9.01425 6.92116 9.12925C7.14533 9.24591 7.37699 9.08175 7.84116 8.75425L8.87616 8.02258C9.02866 7.91353 9.21403 7.86027 9.40116 7.87175L11.832 8.02758L13.8637 6.59175C14.0163 6.48299 14.2016 6.43003 14.3887 6.44175L15.657 6.52258C16.2012 6.55758 16.4737 6.57508 16.6078 6.36591C16.742 6.15675 16.6328 5.93008 16.4137 5.47675C15.322 3.22508 12.8803 2.00591 10.4953 2.69008Z" stroke="black" stroke-width="1.25" stroke-linecap="round" stroke-linejoin="round"/>
</g>
</svg>
