<svg width="20" height="20" viewBox="0 0 20 20" fill="none" xmlns="http://www.w3.org/2000/svg">
<g id="ion:cafe-outline">
<path id="Vector" d="M14.375 3.125H16.875C17.0408 3.125 17.1997 3.19085 17.3169 3.30806C17.4342 3.42527 17.5 3.58424 17.5 3.75V5.07812C17.5 5.55469 17.3107 6.01173 16.9737 6.34871C16.6367 6.68569 16.1797 6.875 15.7031 6.875H14.375M14.375 3.125H3.75V10.625C3.75 11.4538 4.07924 12.2487 4.66529 12.8347C5.25134 13.4208 6.0462 13.75 6.875 13.75H11.25C11.6604 13.75 12.0667 13.6692 12.4459 13.5121C12.825 13.3551 13.1695 13.1249 13.4597 12.8347C13.7499 12.5445 13.9801 12.2 14.1371 11.8209C14.2942 11.4417 14.375 11.0354 14.375 10.625V3.125ZM2.5 16.25H15.625" stroke="black" stroke-linecap="round" stroke-linejoin="round"/>
</g>
</svg>
