<svg width="20" height="21" viewBox="0 0 20 21" fill="none" xmlns="http://www.w3.org/2000/svg">
<g id="carbon:clean">
<path id="Vector" d="M16.25 13H12.5V11.75H16.25V13ZM18.75 18H15V16.75H18.75V18ZM17.5 15.5H13.75V14.25H17.5V15.5Z" fill="black"/>
<path id="Vector_2" d="M10.6271 13C10.6224 12.4727 10.4816 11.9555 10.2184 11.4986C9.95516 11.0417 9.57841 10.6605 9.12461 10.3919L13.7502 2.375L12.669 1.75L7.93336 9.95375C7.35217 9.82397 6.74772 9.84196 6.17528 10.0061C5.60283 10.1702 5.08065 10.4751 4.65649 10.8931C2.31649 13.15 2.49774 18.4262 2.50649 18.65C2.51295 18.8114 2.58164 18.964 2.69816 19.0759C2.81467 19.1877 2.96997 19.2501 3.13149 19.25H12.5009C12.632 19.25 12.7599 19.2087 12.8663 19.132C12.9727 19.0553 13.0523 18.9471 13.0938 18.8226C13.1353 18.6982 13.1365 18.5639 13.0974 18.4386C13.0583 18.3134 12.9808 18.2037 12.8759 18.125C10.6634 16.465 10.6271 13.0337 10.6271 13ZM7.45649 11.1231C7.95672 11.1286 8.43558 11.3268 8.79342 11.6764C9.15127 12.0259 9.36056 12.5 9.37774 13C9.37774 13.0237 9.37899 13.13 9.38836 13.2931L5.70086 11.6531C5.94376 11.4528 6.22406 11.3028 6.52546 11.2118C6.82685 11.1208 7.14333 11.0907 7.45649 11.1231ZM9.65649 18C9.15692 17.4913 8.83848 16.8325 8.75024 16.125H7.50024C7.545 16.7902 7.75278 17.4341 8.10524 18H6.71586C6.45873 17.1889 6.30235 16.3493 6.25024 15.5H5.00024C5.0403 16.3467 5.1798 17.1858 5.41586 18H3.75024C3.76961 16.8525 3.93149 14.3175 4.87711 12.6544L9.58524 14.7481C9.81095 15.9228 10.2933 17.0332 10.9977 18H9.65649Z" fill="black"/>
</g>
</svg>
