<svg width="20" height="20" viewBox="0 0 20 20" fill="none" xmlns="http://www.w3.org/2000/svg">
<g id="mdi:dinner">
<path id="Vector" d="M5.11132 5.491C5.11275 5.48144 5.11392 5.4718 5.1148 5.46211C5.12815 5.31553 5.07624 5.1705 4.9729 5.06569L4.00008 4.07908C4.03732 3.75335 3.92922 3.41616 3.69485 3.17114C3.69074 3.16684 3.68655 3.16261 3.68229 3.15847C3.4696 2.95143 3.18451 2.83558 2.8877 2.83558C2.59088 2.83558 2.30579 2.95143 2.0931 3.15847L2.09307 3.15843L2.08831 3.16319C1.98272 3.26878 1.9031 3.38796 1.84845 3.515C1.7214 3.56965 1.60223 3.64928 1.49664 3.75486C1.05647 4.19503 1.06494 4.90714 1.4907 5.34759C1.49524 5.35229 1.49987 5.35689 1.50458 5.3614C1.75196 5.59802 2.08571 5.70399 2.41077 5.66633L3.39788 6.64654C3.50692 6.75481 3.65968 6.80694 3.81216 6.78789C3.81785 6.78718 3.82351 6.78638 3.82915 6.78547C3.53916 7.42169 3.64714 8.20223 4.16054 8.72581C4.15471 8.72549 4.14887 8.72528 4.14301 8.72517C3.97922 8.72206 3.82429 8.79939 3.72832 8.93216C3.17132 9.70267 2.83353 10.6373 2.83353 11.6667C2.83353 13.16 3.54339 14.4827 4.63736 15.3334H2.5002C2.22405 15.3334 2.0002 15.5573 2.0002 15.8334C2.0002 16.408 2.22847 16.9591 2.6348 17.3655C3.04113 17.7718 3.59223 18.0001 4.16686 18.0001H15.8335C17.0347 18.0001 18.0002 17.0346 18.0002 15.8334C18.0002 15.5573 17.7763 15.3334 17.5002 15.3334H16.2062C16.2854 15.245 16.3335 15.1281 16.3335 15.0001V14.1667C16.3335 10.9403 14.1919 8.20928 11.2631 7.31361C11.0629 7.25239 10.8458 7.32234 10.719 7.48889C10.6781 7.54264 10.6494 7.60279 10.633 7.66553C10.0383 6.92652 9.21219 6.50721 8.35634 6.42737C7.86124 6.37836 7.45381 6.21997 7.15328 5.92924C7.13989 5.91099 7.12526 5.89366 7.1095 5.87737C6.56828 5.31812 5.76348 5.19127 5.11132 5.491ZM14.2335 8.33341C14.2335 8.60956 14.4574 8.83341 14.7335 8.83341H15.7752C15.8431 8.83341 15.9078 8.81988 15.9669 8.79536V9.16675C15.9669 9.44289 16.1907 9.66675 16.4669 9.66675H17.5002C17.7763 9.66675 18.0002 9.44289 18.0002 9.16675V7.14289C18.0046 6.32196 17.7761 5.51661 17.3413 4.82025C17.0158 4.29897 16.5847 3.85477 16.0782 3.51485C16.3538 3.08232 16.5169 2.57092 16.5169 2.01675C16.5169 1.74061 16.293 1.51675 16.0169 1.51675H14.9752C14.6991 1.51675 14.4752 1.74061 14.4752 2.01675C14.4752 2.43227 14.1157 2.79175 13.7002 2.79175C13.4241 2.79175 13.2002 3.01561 13.2002 3.29175V4.32508C13.2002 4.55334 13.3532 4.74588 13.5622 4.80578C13.5001 4.802 13.4378 4.80008 13.3752 4.80008H12.3169C12.1396 4.80008 11.9459 4.71108 11.7861 4.53495C11.6259 4.35839 11.5335 4.1294 11.5335 3.91675C11.5335 3.52915 11.8636 3.20008 12.3169 3.20008C12.593 3.20008 12.8169 2.97622 12.8169 2.70008V1.66675C12.8169 1.39061 12.593 1.16675 12.3169 1.16675C10.7574 1.16675 9.50019 2.42394 9.50019 3.98341C9.50019 5.54289 10.7574 6.80008 12.3169 6.80008H13.3752C13.6213 6.80008 13.8322 6.88564 13.9788 7.02731C14.1211 7.16485 14.2335 7.38482 14.2335 7.71675V8.33341ZM15.2149 5.4123C14.8043 5.10151 14.3056 4.89593 13.7758 4.82632C14.3309 4.84452 14.8322 5.06242 15.2149 5.4123Z" stroke="black" stroke-linejoin="round"/>
</g>
</svg>
