<svg width="20" height="10" viewBox="0 0 20 10" fill="none" xmlns="http://www.w3.org/2000/svg">
<g id="Group">
<path id="Vector" d="M6.16634 0.833252H3.83301C3.7004 0.833252 3.57322 0.88593 3.47945 0.979699C3.38569 1.07347 3.33301 1.20064 3.33301 1.33325V8.66658C3.33301 8.73224 3.34594 8.79726 3.37107 8.85793C3.3962 8.91859 3.43303 8.97371 3.47945 9.02014C3.52588 9.06657 3.581 9.1034 3.64167 9.12852C3.70233 9.15365 3.76735 9.16658 3.83301 9.16658H6.16634C6.232 9.16658 6.29702 9.15365 6.35768 9.12852C6.41835 9.1034 6.47346 9.06657 6.51989 9.02014C6.56632 8.97371 6.60315 8.91859 6.62828 8.85793C6.65341 8.79726 6.66634 8.73224 6.66634 8.66658V1.33325C6.66634 1.20064 6.61366 1.07347 6.51989 0.979699C6.42613 0.88593 6.29895 0.833252 6.16634 0.833252ZM16.1663 0.833252H13.833C13.7004 0.833252 13.5732 0.88593 13.4795 0.979699C13.3857 1.07347 13.333 1.20064 13.333 1.33325V8.66658C13.333 8.73224 13.3459 8.79726 13.3711 8.85793C13.3962 8.91859 13.433 8.97371 13.4795 9.02014C13.5259 9.06657 13.581 9.1034 13.6417 9.12852C13.7023 9.15365 13.7673 9.16658 13.833 9.16658H16.1663C16.232 9.16658 16.297 9.15365 16.3577 9.12852C16.4183 9.1034 16.4735 9.06657 16.5199 9.02014C16.5663 8.97371 16.6032 8.91859 16.6283 8.85793C16.6534 8.79726 16.6663 8.73224 16.6663 8.66658V1.33325C16.6663 1.20064 16.6137 1.07347 16.5199 0.979699C16.4261 0.88593 16.2989 0.833252 16.1663 0.833252Z" stroke="black" stroke-linecap="round" stroke-linejoin="round"/>
<path id="Vector_2" d="M6.66634 5H13.333M0.833008 7V3C0.833008 2.86739 0.885686 2.74021 0.979454 2.64645C1.07322 2.55268 1.2004 2.5 1.33301 2.5H2.83301C2.96562 2.5 3.09279 2.55268 3.18656 2.64645C3.28033 2.74021 3.33301 2.86739 3.33301 3V7C3.33301 7.13261 3.28033 7.25979 3.18656 7.35355C3.09279 7.44732 2.96562 7.5 2.83301 7.5H1.33301C1.2004 7.5 1.07322 7.44732 0.979454 7.35355C0.885686 7.25979 0.833008 7.13261 0.833008 7ZM19.1663 7V3C19.1663 2.86739 19.1137 2.74021 19.0199 2.64645C18.9261 2.55268 18.7989 2.5 18.6663 2.5H17.1663C17.0337 2.5 16.9066 2.55268 16.8128 2.64645C16.719 2.74021 16.6663 2.86739 16.6663 3V7C16.6663 7.13261 16.719 7.25979 16.8128 7.35355C16.9066 7.44732 17.0337 7.5 17.1663 7.5H18.6663C18.7989 7.5 18.9261 7.44732 19.0199 7.35355C19.1137 7.25979 19.1663 7.13261 19.1663 7Z" stroke="black" stroke-linecap="round" stroke-linejoin="round"/>
</g>
</svg>
