<svg width="20" height="20" viewBox="0 0 20 20" fill="none" xmlns="http://www.w3.org/2000/svg">
<g id="material-symbols:bath-private-outline-sharp">
<path id="Vector" d="M10.029 6.16658H9.52492C9.56457 5.88196 9.55998 5.62168 9.51116 5.38575C9.43505 5.01797 9.25088 4.6602 8.95866 4.31242C8.51421 3.78464 8.22255 3.24658 8.08366 2.69825C7.94477 2.14992 7.95171 1.52825 8.10449 0.833252M10.029 6.16658C10.0096 6.33012 9.97776 6.49696 9.93479 6.66658H10.7087M10.029 6.16658C10.0656 5.85972 10.0587 5.56451 10.0008 5.28442C9.9047 4.82013 9.67591 4.3888 9.34146 3.99077L9.34111 3.99035C8.93486 3.50793 8.68504 3.03617 8.56835 2.57548C8.47732 2.21607 8.45785 1.80409 8.52235 1.33325M10.029 6.16658H10.3022M10.7087 6.66658C10.8614 6.08325 10.8753 5.54158 10.7503 5.04158C10.6253 4.54158 10.3406 4.0277 9.89616 3.49992C9.60449 3.13936 9.41699 2.76103 9.33366 2.36492C9.27375 2.08017 9.26409 1.73628 9.30467 1.33325H8.80234M10.7087 6.66658L10.225 6.53991C10.2585 6.41179 10.2842 6.2874 10.3022 6.16658M10.7087 6.66658V6.16658H10.3022M8.80234 1.33325C8.81718 1.17218 8.83926 1.00537 8.86796 0.833252L8.10449 0.833252M8.80234 1.33325C8.76365 1.75289 8.77405 2.13362 8.84437 2.46785C8.94623 2.95204 9.17326 3.40129 9.50742 3.81438L9.50735 3.81444L9.5137 3.82199C9.92494 4.31033 10.1639 4.75736 10.2653 5.16285C10.3415 5.4678 10.3567 5.80084 10.3022 6.16658M8.80234 1.33325H8.52235M8.10449 0.833252L8.59283 0.940601C8.56311 1.07582 8.53969 1.20666 8.52235 1.33325M8.10449 0.833252V1.33325H8.52235M16.0434 7.41658H16.042C15.7757 7.41658 15.5607 7.32642 15.3691 7.12999C15.1744 6.93034 15.084 6.70764 15.0837 6.43673C15.0833 6.16724 15.1728 5.95135 15.364 5.76083C15.5564 5.5692 15.7736 5.47946 16.0427 5.47908C16.3107 5.47871 16.5276 5.56798 16.7204 5.76048C16.9128 5.95241 17.0014 6.16813 17.0003 6.43534C16.9992 6.70591 16.9085 6.92985 16.7135 7.13137C16.5238 7.32744 16.31 7.41732 16.0434 7.41658ZM3.96003 7.41658H3.95866C3.6924 7.41658 3.47734 7.32642 3.28578 7.12999C3.09107 6.93034 3.0007 6.70764 3.00033 6.43673C2.99995 6.16724 3.08942 5.95135 3.28069 5.76083C3.47307 5.5692 3.69023 5.47946 3.95935 5.47908C4.22739 5.47871 4.44424 5.56798 4.63712 5.76048C4.82942 5.95241 4.91811 6.16813 4.917 6.43534C4.91587 6.70591 4.82521 6.92985 4.63019 7.13137C4.44045 7.32744 4.22666 7.41732 3.96003 7.41658ZM7.52905 6.16658C7.5656 5.85972 7.55875 5.56451 7.50078 5.28442C7.4047 4.82013 7.17591 4.3888 6.84146 3.99076L6.84111 3.99035C6.43486 3.50792 6.18504 3.03617 6.06835 2.57548C5.97732 2.21607 5.95785 1.80409 6.02235 1.33325H6.31057C6.27899 1.73464 6.29047 2.10356 6.35206 2.43534L6.84366 2.34409L6.35206 2.43534C6.44509 2.93647 6.66952 3.39723 7.00884 3.8151L7.00878 3.81515L7.01454 3.82199C7.42577 4.31033 7.66471 4.75736 7.76609 5.16285C7.84231 5.46776 7.8574 5.80079 7.80253 6.16658H7.52905ZM11.917 6.66658C11.9668 6.49231 12.0028 6.32565 12.0249 6.16658H12.529C12.5096 6.33012 12.4778 6.49696 12.4348 6.66658H11.917ZM12.8022 6.16658C12.7842 6.2874 12.7585 6.41179 12.725 6.53991L13.2087 6.66658V6.16658H12.8022ZM11.368 0.833252C11.3393 1.00537 11.3172 1.17218 11.3023 1.33325H11.8047C11.8205 1.17563 11.8441 1.00896 11.8753 0.833252L11.368 0.833252ZM10.6045 1.33325H11.0224C11.0397 1.20666 11.0631 1.07582 11.0928 0.940601L10.6045 0.833252V1.33325ZM17.5003 11.3333H17.8337V17.8333H2.16699V11.3333H2.50033C2.77647 11.3333 3.00033 11.1094 3.00033 10.8333V10.3124C3.00033 10.0115 3.09934 9.76925 3.30609 9.55788C3.51028 9.34914 3.7456 9.24992 4.04199 9.24992C4.18238 9.24992 4.31565 9.28209 4.44788 9.35057C4.60154 9.43015 4.73276 9.52508 4.84443 9.63457L6.18717 11.1632C6.2821 11.2713 6.41898 11.3333 6.56283 11.3333H13.4378C13.5817 11.3333 13.7186 11.2713 13.8135 11.1632L15.1562 9.63457C15.2683 9.52466 15.3995 9.42995 15.5526 9.35107C15.6854 9.2827 15.8189 9.25038 15.9592 9.24992C16.2561 9.25004 16.4915 9.34941 16.6954 9.55788C16.902 9.76908 17.0007 10.0111 17.0003 10.3118V10.3124V10.8333C17.0003 11.1094 17.2242 11.3333 17.5003 11.3333ZM2.83366 14.1666C2.83366 14.4427 3.05752 14.6666 3.33366 14.6666H16.667C16.9431 14.6666 17.167 14.4427 17.167 14.1666V12.4999C17.167 12.2238 16.9431 11.9999 16.667 11.9999H3.33366C3.05752 11.9999 2.83366 12.2238 2.83366 12.4999V14.1666ZM2.83366 16.6666C2.83366 16.9427 3.05752 17.1666 3.33366 17.1666H16.667C16.9431 17.1666 17.167 16.9427 17.167 16.6666V15.8333C17.167 15.5571 16.9431 15.3333 16.667 15.3333H3.33366C3.05752 15.3333 2.83366 15.5571 2.83366 15.8333V16.6666Z" stroke="black" stroke-linejoin="round"/>
</g>
</svg>
