<svg width="20" height="21" viewBox="0 0 20 21" fill="none" xmlns="http://www.w3.org/2000/svg">
<g id="ic:round-pool">
<path id="Vector" d="M5.09199 5.13337C6.08366 5.25004 6.78366 5.6167 7.50033 6.33337L8.33366 7.1667L5.62533 9.87504C5.88366 9.97504 6.09199 10.1 6.26699 10.2C6.57533 10.3917 6.75866 10.5 7.22533 10.5C7.69199 10.5 7.87533 10.3917 8.18366 10.2C8.56699 9.97504 9.08366 9.6667 10.0087 9.6667C10.9337 9.6667 11.4503 9.97504 11.8253 10.2C12.1337 10.3834 12.3253 10.5 12.7837 10.5C13.242 10.5 13.4337 10.3917 13.742 10.2C13.842 10.1417 13.9587 10.075 14.0837 10.0084L8.73366 4.6667C7.68366 3.6167 6.70033 3.1667 5.25033 3.0417C4.66699 2.9917 4.16699 3.4667 4.16699 4.05004V4.12504C4.16699 4.65004 4.57533 5.0667 5.09199 5.13337ZM17.792 16.2584C17.6503 16.2084 17.5253 16.1334 17.3753 16.0334C17.0003 15.8084 16.4837 15.5 15.5587 15.5C14.6337 15.5 14.117 15.8084 13.742 16.0334C13.4337 16.225 13.242 16.3334 12.7837 16.3334C12.3253 16.3334 12.1337 16.2167 11.8253 16.0334C11.4503 15.8084 10.9337 15.5 10.0087 15.5C9.08366 15.5 8.56699 15.8084 8.18366 16.0334C7.87533 16.225 7.69199 16.3334 7.22533 16.3334C6.75866 16.3334 6.57533 16.225 6.26699 16.0334C5.89199 15.8084 5.37533 15.5 4.45033 15.5C3.52533 15.5 3.00866 15.8084 2.62533 16.0334C2.47533 16.125 2.35033 16.2 2.20866 16.2584C1.89199 16.3667 1.66699 16.6334 1.66699 16.9667V17.0667C1.66699 17.625 2.21699 18.0084 2.75033 17.825C3.05866 17.7167 3.29199 17.575 3.49199 17.4584C3.80033 17.275 3.99199 17.1667 4.45033 17.1667C4.90866 17.1667 5.10033 17.275 5.40866 17.4667C5.78366 17.6917 6.30033 18 7.22533 18C8.15033 18 8.66699 17.6917 9.05032 17.4667C9.35866 17.275 9.54199 17.1667 10.0087 17.1667C10.467 17.1667 10.6587 17.2834 10.967 17.4667C11.342 17.6917 11.8587 18 12.7837 18C13.7087 18 14.217 17.6917 14.6003 17.4667C14.9087 17.275 15.092 17.1667 15.5587 17.1667C16.017 17.1667 16.2087 17.2834 16.517 17.4667C16.7087 17.5834 16.942 17.725 17.2503 17.8334C17.7753 18.0167 18.3337 17.6334 18.3337 17.075V16.975C18.3337 16.6334 18.1087 16.3667 17.792 16.2584ZM2.59199 14.125C2.98366 14.0167 3.26699 13.85 3.50033 13.7167C3.80866 13.525 4.00033 13.4167 4.45866 13.4167C4.91699 13.4167 5.10866 13.5334 5.41699 13.7167C5.79199 13.9417 6.30866 14.25 7.23366 14.25C8.15866 14.25 8.67532 13.9417 9.05032 13.7167C9.35866 13.525 9.54199 13.4167 10.0087 13.4167C10.467 13.4167 10.6587 13.5334 10.967 13.7167C11.342 13.9417 11.8587 14.25 12.7837 14.25C13.7087 14.25 14.2253 13.9417 14.6003 13.7167C14.9087 13.525 15.092 13.4167 15.5587 13.4167C16.017 13.4167 16.2087 13.5334 16.517 13.7167C16.7087 13.8334 16.9337 13.9667 17.2253 14.075C17.3477 14.1192 17.4789 14.1335 17.608 14.1165C17.737 14.0996 17.8601 14.052 17.967 13.9778C18.0739 13.9036 18.1614 13.8048 18.2223 13.6898C18.2832 13.5748 18.3157 13.4468 18.317 13.3167V13.2167C18.317 12.8834 18.092 12.6167 17.7837 12.5C17.642 12.45 17.517 12.375 17.3587 12.2834C16.9837 12.0584 16.467 11.75 15.542 11.75C14.617 11.75 14.1003 12.0584 13.7253 12.2834C13.417 12.475 13.2253 12.5834 12.767 12.5834C12.3087 12.5834 12.117 12.4667 11.8087 12.2834C11.4337 12.0584 10.917 11.75 9.99199 11.75C9.06699 11.75 8.55033 12.0584 8.17533 12.2834C7.86699 12.475 7.68366 12.5834 7.21699 12.5834C6.75866 12.5834 6.56699 12.4667 6.25866 12.2834C5.88366 12.0584 5.36699 11.75 4.44199 11.75C3.51699 11.75 3.00033 12.0584 2.62533 12.2834C2.47533 12.375 2.35033 12.45 2.20866 12.5084C1.89199 12.6167 1.66699 12.8834 1.66699 13.2167V13.4084C1.66699 13.8917 2.12533 14.2584 2.59199 14.125Z" fill="black"/>
<path id="Vector_2" d="M13.7503 7.16667C14.9009 7.16667 15.8337 6.23393 15.8337 5.08333C15.8337 3.93274 14.9009 3 13.7503 3C12.5997 3 11.667 3.93274 11.667 5.08333C11.667 6.23393 12.5997 7.16667 13.7503 7.16667Z" fill="black"/>
</g>
</svg>
