<svg width="20" height="21" viewBox="0 0 20 21" fill="none" xmlns="http://www.w3.org/2000/svg">
<g id="mdi:kids-room">
<path id="Vector" d="M13.125 16.4416C12.4333 16.4416 11.875 15.7416 11.875 14.8749C11.875 14.0166 12.4333 13.3166 13.125 13.3166C13.8167 13.3166 14.375 14.0166 14.375 14.8749C14.375 15.7416 13.8167 16.4416 13.125 16.4416ZM10 9.87491C8.96668 9.87491 8.12501 9.17491 8.12501 8.31658C8.12501 7.44991 8.96668 6.74991 10 6.74991C11.0333 6.74991 11.875 7.44991 11.875 8.31658C11.875 9.17491 11.0333 9.87491 10 9.87491ZM6.87501 16.4416C6.18334 16.4416 5.62501 15.7416 5.62501 14.8749C5.62501 14.0166 6.18334 13.3166 6.87501 13.3166C7.56668 13.3166 8.12501 14.0166 8.12501 14.8749C8.12501 15.7416 7.56668 16.4416 6.87501 16.4416ZM10 7.37491C10.3417 7.37491 10.625 7.65825 10.625 7.99991C10.625 8.34158 10.3417 8.62491 10 8.62491C9.65834 8.62491 9.37501 8.34158 9.37501 7.99991C9.37501 7.65825 9.65834 7.37491 10 7.37491ZM15.625 10.4999C15.3583 10.4999 15.1 10.5582 14.8667 10.6666C14.4667 10.1582 13.925 9.72491 13.275 9.39158C13.75 8.72491 14.0333 7.91658 14.0333 7.04158V6.99158C14.9417 6.79991 15.625 5.99158 15.625 5.01658C15.625 3.90825 14.7167 2.99991 13.6083 2.99991C13.0333 2.99991 12.5 3.24158 12.15 3.62491C11.5073 3.21644 10.7615 2.99951 10 2.99951C9.23849 2.99951 8.49272 3.21644 7.85001 3.62491C7.50001 3.24158 6.96668 2.99991 6.39168 2.99991C5.28334 2.99991 4.37501 3.90825 4.37501 5.01658C4.37501 5.98325 5.05834 6.79158 5.95834 6.99158V7.04158C5.95834 7.91658 6.25001 8.73324 6.71668 9.39158C6.07501 9.72491 5.53334 10.1582 5.13334 10.6666C4.84856 10.5383 4.53615 10.4835 4.22471 10.5073C3.91328 10.531 3.61278 10.6325 3.35075 10.8025C3.08872 10.9725 2.87353 11.2055 2.7249 11.4803C2.57627 11.755 2.49894 12.0626 2.50001 12.3749C2.50001 13.4166 3.33334 14.2499 4.37501 14.2499H4.42501C4.39168 14.4499 4.37501 14.6666 4.37501 14.8749C4.37501 16.5999 5.49168 17.9999 6.87501 17.9999C7.71668 17.9999 8.45834 17.4749 8.91668 16.6749C9.26668 16.7249 9.62501 16.7499 10 16.7499C10.375 16.7499 10.7333 16.7249 11.0833 16.6749C11.5417 17.4749 12.2833 17.9999 13.125 17.9999C14.5083 17.9999 15.625 16.5999 15.625 14.8749C15.625 14.6666 15.6083 14.4499 15.575 14.2499H15.625C16.6667 14.2499 17.5 13.4166 17.5 12.3749C17.5 11.3332 16.6667 10.4999 15.625 10.4999Z" fill="black"/>
</g>
</svg>
