<svg width="20" height="20" viewBox="0 0 20 20" fill="none" xmlns="http://www.w3.org/2000/svg">
<g id="ic:round-pool">
<path id="Vector" d="M13.267 9.39957L8.38038 4.52053L8.38011 4.52026C7.41384 3.554 6.54072 3.15484 5.20763 3.03988L13.267 9.39957ZM13.267 9.39957C13.2252 9.42142 13.1888 9.43758 13.1518 9.45073C13.0743 9.47824 12.9709 9.50004 12.7837 9.50004C12.6006 9.50004 12.4975 9.47728 12.4186 9.44869C12.3278 9.4158 12.2447 9.36769 12.0817 9.27078C11.6802 9.02988 11.0688 8.6667 10.0087 8.6667C8.95623 8.6667 8.34606 9.02491 7.94031 9.2631L7.93056 9.26883L7.93048 9.26869L7.91969 9.27539C7.75992 9.37471 7.68038 9.42075 7.59548 9.45112C7.52037 9.47798 7.41769 9.50004 7.22533 9.50004C7.03296 9.50004 6.93028 9.47798 6.85517 9.45112C6.77027 9.42075 6.69073 9.37471 6.53096 9.27539C6.52572 9.27214 6.52042 9.26898 6.51506 9.26592C6.50014 9.25739 6.48457 9.24843 6.46836 9.2391L8.68721 7.02026C8.78098 6.92649 8.83366 6.79931 8.83366 6.6667C8.83366 6.5341 8.78098 6.40692 8.68721 6.31315L7.85388 5.47982C7.06644 4.69238 6.26598 4.26868 5.15365 4.13718C4.85991 4.09821 4.66699 3.871 4.66699 3.62504V3.55004C4.66699 3.24972 4.92599 3.01588 5.20738 3.03986L13.267 9.39957ZM17.6256 16.2299L17.6256 16.2299L17.6301 16.2315C17.7778 16.282 17.8337 16.3802 17.8337 16.475V16.575C17.8337 16.7778 17.626 16.9347 17.4155 16.8615C17.1615 16.7721 16.9674 16.6555 16.777 16.5396L16.777 16.5396L16.7725 16.5369C16.7652 16.5326 16.7578 16.5282 16.7503 16.5237C16.6108 16.4406 16.451 16.3455 16.2644 16.2779C16.0558 16.2023 15.8339 16.1667 15.5587 16.1667C15.2844 16.1667 15.062 16.1988 14.8517 16.274C14.6536 16.3449 14.4889 16.4472 14.3418 16.5387C14.3366 16.5418 14.3314 16.5448 14.3262 16.5479C13.9684 16.758 13.5564 17 12.7837 17C11.9946 17 11.5727 16.7471 11.2242 16.538L11.2225 16.5369C11.2152 16.5326 11.2078 16.5282 11.2003 16.5237C11.0607 16.4406 10.901 16.3455 10.7144 16.2779C10.5058 16.2023 10.2839 16.1667 10.0087 16.1667C9.73436 16.1667 9.51203 16.1988 9.30173 16.274C9.10362 16.3449 8.93892 16.4472 8.79172 16.5387L8.78563 16.5423C8.42721 16.7527 8.00599 17 7.22533 17C6.43879 17 6.01712 16.7487 5.66927 16.54C5.51883 16.4465 5.35264 16.3445 5.15305 16.2737C4.94302 16.1991 4.72144 16.1667 4.45033 16.1667C4.17896 16.1667 3.95878 16.1991 3.75065 16.2715C3.55338 16.3402 3.38784 16.4386 3.2394 16.5269L3.23828 16.5275C3.22705 16.5341 3.21586 16.5406 3.2047 16.5471C3.01132 16.6601 2.82674 16.768 2.58641 16.8527C2.36754 16.927 2.16699 16.7701 2.16699 16.5667V16.4667C2.16699 16.3834 2.21949 16.2831 2.3705 16.2315C2.38012 16.2282 2.38964 16.2246 2.39903 16.2207C2.58075 16.1459 2.73628 16.0515 2.88227 15.9623L2.89003 15.9578C3.24845 15.7473 3.66967 15.5 4.45033 15.5C5.23687 15.5 5.65854 15.7514 6.0064 15.9601L6.00786 15.961C6.15519 16.0526 6.32005 16.1551 6.5184 16.226C6.7287 16.3013 6.95103 16.3334 7.22533 16.3334C7.49962 16.3334 7.72195 16.3013 7.93225 16.226C8.13035 16.1552 8.29504 16.0529 8.44224 15.9614L8.44836 15.9578C8.80678 15.7473 9.228 15.5 10.0087 15.5C10.7977 15.5 11.2196 15.753 11.5681 15.9621L11.5698 15.9631C11.5771 15.9675 11.5845 15.9719 11.592 15.9764C11.7316 16.0595 11.8913 16.1546 12.0779 16.2222C12.2865 16.2978 12.5084 16.3334 12.7837 16.3334C13.0548 16.3334 13.2764 16.301 13.4864 16.2264C13.686 16.1556 13.8521 16.0536 14.0026 15.9601C14.3504 15.7514 14.7721 15.5 15.5587 15.5C16.3402 15.5 16.7615 15.7482 17.108 15.9561C17.2622 16.0585 17.4269 16.1597 17.6256 16.2299ZM2.4587 13.1431L2.45869 13.1431L2.45463 13.1443C2.32653 13.1809 2.16699 13.0797 2.16699 12.9084V12.7167C2.16699 12.6334 2.21949 12.5331 2.3705 12.4815C2.38012 12.4782 2.38964 12.4746 2.39903 12.4707C2.5816 12.3955 2.73773 12.3006 2.88432 12.2111C3.23248 12.0022 3.65424 11.75 4.44199 11.75C5.23107 11.75 5.65291 12.003 6.00141 12.2121L6.00312 12.2131C6.01046 12.2175 6.01786 12.2219 6.02532 12.2263C6.1649 12.3095 6.32467 12.4046 6.51125 12.4722C6.71984 12.5478 6.94173 12.5834 7.21699 12.5834C7.49129 12.5834 7.71362 12.5513 7.92392 12.476C8.12226 12.4051 8.28712 12.3026 8.43445 12.211L8.43596 12.2101C8.7838 12.0014 9.20547 11.75 9.99199 11.75C10.7811 11.75 11.2029 12.003 11.5514 12.2121L11.5531 12.2131C11.5605 12.2175 11.5679 12.2219 11.5753 12.2263C11.7149 12.3095 11.8747 12.4046 12.0613 12.4722C12.2698 12.5478 12.4917 12.5834 12.767 12.5834C13.0381 12.5834 13.2597 12.551 13.4697 12.4764C13.6693 12.4056 13.8355 12.3036 13.9859 12.2101C14.3338 12.0014 14.7554 11.75 15.542 11.75C16.3311 11.75 16.7529 12.003 17.1014 12.2121L17.1014 12.2122L17.1081 12.2161C17.1209 12.2235 17.1338 12.231 17.147 12.2386C17.2803 12.3162 17.4353 12.4064 17.6106 12.4692C17.7627 12.5281 17.817 12.6328 17.817 12.7167V12.8135C17.8162 12.8632 17.8037 12.9119 17.7804 12.9558C17.7569 13.0003 17.7231 13.0385 17.6817 13.0672C17.6404 13.0958 17.5929 13.1142 17.543 13.1208C17.4937 13.1272 17.4436 13.1219 17.3968 13.1054C17.1537 13.0148 16.9633 12.9031 16.777 12.7896L16.777 12.7896L16.7725 12.7869C16.7652 12.7826 16.7578 12.7782 16.7503 12.7737C16.6107 12.6906 16.451 12.5955 16.2644 12.5279C16.0558 12.4523 15.8339 12.4167 15.5587 12.4167C15.2844 12.4167 15.062 12.4488 14.8517 12.524C14.6534 12.595 14.4885 12.6975 14.3412 12.7891L14.3397 12.79C13.9919 12.9987 13.5702 13.25 12.7837 13.25C11.9946 13.25 11.5727 12.9971 11.2242 12.788L11.2225 12.7869C11.2152 12.7826 11.2078 12.7782 11.2003 12.7737C11.0608 12.6906 10.901 12.5955 10.7144 12.5279C10.5058 12.4523 10.2839 12.4167 10.0087 12.4167C9.73436 12.4167 9.51204 12.4488 9.30173 12.524C9.10338 12.595 8.93852 12.6975 8.79118 12.7891L8.78969 12.79C8.44185 12.9987 8.02018 13.25 7.23366 13.25C6.44458 13.25 6.02274 12.9971 5.67424 12.788L5.67253 12.7869C5.66519 12.7826 5.65779 12.7782 5.65033 12.7737C5.51075 12.6906 5.35098 12.5955 5.1644 12.5279C4.95581 12.4523 4.73392 12.4167 4.45866 12.4167C4.18754 12.4167 3.96596 12.4491 3.75594 12.5236C3.55834 12.5938 3.39348 12.6944 3.24422 12.7872L3.23433 12.7928C3.00402 12.9245 2.77427 13.0558 2.4587 13.1431Z" stroke="black" stroke-linejoin="round"/>
<path id="Vector_2" d="M15.3337 4.58333C15.3337 5.45778 14.6248 6.16667 13.7503 6.16667C12.8759 6.16667 12.167 5.45778 12.167 4.58333C12.167 3.70888 12.8759 3 13.7503 3C14.6248 3 15.3337 3.70888 15.3337 4.58333Z" stroke="black"/>
</g>
</svg>
