<svg width="20" height="22" viewBox="0 0 20 22" fill="none" xmlns="http://www.w3.org/2000/svg">
<g id="guidance:sauna">
<path id="Vector" d="M12.9167 1.83336C12.9167 1.83336 11.0417 3.97586 12.9167 6.83336C14.7917 9.69086 12.9167 11.8334 12.9167 11.8334M15.4167 1.83336C15.4167 1.83336 13.5417 3.97586 15.4167 6.83336C17.2917 9.69086 15.4167 11.8334 15.4167 11.8334M17.9167 1.83336C17.9167 1.83336 16.0417 3.97586 17.9167 6.83336C19.7917 9.69086 17.9167 11.8334 17.9167 11.8334M0 17.25H8.33333M8.75 13.0834L7.08333 6.4167H5.88917C5.38254 6.41677 4.8879 6.57077 4.47076 6.85829C4.05363 7.1458 3.73369 7.55326 3.55333 8.0267L0.833333 15.1667M12.5 20.5834C11.6667 20.5834 11.0417 19.3334 11.0417 19.3334C10.4167 18.0834 10.4167 17.25 10.4167 16V14.75H4.58333V9.75003M5.99583 4.75003C5.99583 4.75003 4.4875 4.28586 4.21667 3.27003C4.11634 2.8938 4.16885 2.49317 4.36274 2.15551C4.55663 1.81784 4.87617 1.57054 5.25167 1.46753C5.4375 1.41781 5.63133 1.40534 5.822 1.43085C6.01267 1.45635 6.19641 1.51933 6.36264 1.61616C6.52886 1.71298 6.67429 1.84173 6.79054 1.995C6.90679 2.14827 6.99157 2.32302 7.04 2.5092C7.31 3.52503 6.23833 4.6842 6.23833 4.6842L5.99583 4.75003Z" stroke="black" stroke-width="1.2"/>
</g>
</svg>
