<svg width="22" height="20" viewBox="0 0 22 20" fill="none" xmlns="http://www.w3.org/2000/svg">
<g id="map:spa">
<path id="Vector" d="M11.6343 12.4298C11.5715 12.574 11.4808 12.7044 11.3675 12.8135C11.2541 12.9225 11.1204 13.0082 10.974 13.0655C10.9407 13.0785 10.907 13.09 10.8728 13.1H13.0004C13.0541 13.1 13.1059 13.1085 13.1544 13.1242C13.2095 13.093 13.2713 13.072 13.3375 13.0636L15.5539 12.7828C15.5761 12.78 15.5983 12.7786 15.6206 12.7788C16.1189 12.7826 16.6144 12.9154 16.9974 13.2165C17.0663 13.2707 17.1305 13.3296 17.1895 13.3928C17.2777 13.245 17.3838 13.1083 17.5058 12.9858C17.701 12.7898 17.9329 12.6341 18.1882 12.5278C18.4435 12.4215 18.7173 12.3665 18.9939 12.366L18.9948 12.366C20.1569 12.366 21.1003 13.3085 21.1004 14.475L11.6343 12.4298ZM11.6343 12.4298C11.6776 12.3307 11.7069 12.2271 11.7222 12.1219C11.7683 12.2152 11.8266 12.3022 11.8956 12.3807C11.9998 12.4994 12.1265 12.5961 12.2684 12.6655C12.4103 12.7348 12.5645 12.7753 12.7221 12.7847C12.8797 12.7941 13.0377 12.7721 13.1867 12.7201L13.1868 12.7201L13.1896 12.7191C13.4882 12.6129 13.7328 12.3932 13.8705 12.1077C14.0039 11.8311 14.0264 11.5142 13.9341 11.222L13.3672 8.76747C13.3656 8.76086 13.364 8.75428 13.3622 8.74774C13.3012 8.52544 13.1776 8.32568 13.0064 8.17208C12.8958 8.04935 12.6591 7.78531 12.3898 7.48496C11.8615 6.89566 11.2079 6.16657 11.1355 6.09064L11.1356 6.09055L11.1276 6.0825C10.9316 5.886 10.546 5.58987 9.9002 5.51676C10.3836 5.09707 10.6888 4.47694 10.6888 3.7864C10.6888 2.52551 9.67138 1.5 8.40959 1.5C7.1489 1.5 6.12999 2.52521 6.12999 3.7864C6.12999 4.47671 6.43527 5.09651 6.91843 5.51615C6.18329 5.60399 5.69873 6.04017 5.45208 6.57515C5.19394 7.13504 5.1936 7.80183 5.38316 8.2832L5.38313 8.28321L5.38521 8.28832L5.6611 8.96689C5.43319 9.01789 5.27047 9.2203 5.27039 9.45464L5.26922 13.1H2.18719C1.90395 13.1 1.59045 13.1788 1.3362 13.3797C1.06695 13.5925 0.900391 13.9155 0.900391 14.3104V18C0.900391 18.2761 1.12425 18.5 1.40039 18.5H13.0004C13.0715 18.5 13.1391 18.4852 13.2004 18.4584C13.2616 18.4852 13.3293 18.5 13.4004 18.5H19.949M11.6343 12.4298L19.949 18.5M19.949 18.5C20.2032 18.5091 20.4532 18.4322 20.6585 18.2817C20.8676 18.1285 21.0177 17.9082 21.0838 17.6576C21.0948 17.616 21.1004 17.5731 21.1004 17.53L21.1004 17.142L21.1004 17.1388L20.6004 17.142C21.1004 17.1388 21.1004 17.1385 21.1004 17.1383L21.1004 17.1378L21.1004 17.1368L21.1003 17.1345L21.1002 17.129L21.0998 17.1147C21.0994 17.1036 21.0987 17.0897 21.0974 17.0732C21.095 17.0403 21.0905 16.9964 21.082 16.945C21.0655 16.8446 21.032 16.7027 20.9609 16.5546C20.8892 16.4052 20.773 16.2369 20.5868 16.1064C20.5379 16.0722 20.4863 16.042 20.4319 16.016C20.4497 15.9994 20.4672 15.9824 20.4845 15.9651C20.8791 15.5697 21.1006 15.0338 21.1004 14.4752L19.949 18.5ZM10.2031 13.1H8.95941L9.0699 12.9825C9.13698 12.9111 9.18058 12.8229 9.19756 12.7292L10.0728 13.0536C10.1154 13.0716 10.1589 13.0871 10.2031 13.1ZM17.0961 15.9C17.161 15.8343 17.2211 15.7638 17.2758 15.6889C17.3278 15.7629 17.3845 15.8334 17.4454 15.9H17.0961ZM11.1773 9.55902L11.5136 11.2531C11.3922 11.0814 11.2268 10.9432 11.0326 10.8541C11.0764 10.7789 11.1004 10.6924 11.1004 10.6028V9.51325L11.1773 9.55902Z" stroke="black" stroke-linejoin="round"/>
</g>
</svg>
