<svg width="20" height="21" viewBox="0 0 20 21" fill="none" xmlns="http://www.w3.org/2000/svg">
<g id="zondicons:travel-walk">
<path id="Vector" d="M11 7.5L12.44 9.66C12.75 10.13 13.45 10.5 14.01 10.5H17V8.5H14L12.56 6.34C12.1741 5.79903 11.701 5.32592 11.16 4.94L9.84 4.06C9.5844 3.90658 9.29331 3.82223 8.99529 3.81522C8.69726 3.80821 8.40253 3.87877 8.14 4.02L4 6.5V11.5H6V7.5L8 6.5L5 20.5H7L9.35 12.85L11 14.5V20.5H13V12.5L10.3 9.8L11 7.5ZM12 4.5C12.5304 4.5 13.0391 4.28929 13.4142 3.91421C13.7893 3.53914 14 3.03043 14 2.5C14 1.96957 13.7893 1.46086 13.4142 1.08579C13.0391 0.710714 12.5304 0.5 12 0.5C11.4696 0.5 10.9609 0.710714 10.5858 1.08579C10.2107 1.46086 10 1.96957 10 2.5C10 3.03043 10.2107 3.53914 10.5858 3.91421C10.9609 4.28929 11.4696 4.5 12 4.5Z" fill="black"/>
</g>
</svg>
