<svg width="20" height="21" viewBox="0 0 20 21" fill="none" xmlns="http://www.w3.org/2000/svg">
<g id="typcn:wi-fi">
<path id="Vector" d="M11.1782 16.6768C11.3332 16.5224 11.4563 16.3389 11.5402 16.1368C11.6242 15.9348 11.6674 15.7181 11.6674 15.4993C11.6674 15.2805 11.6242 15.0638 11.5402 14.8617C11.4563 14.6597 11.3332 14.4762 11.1782 14.3218C11.0239 14.1664 10.8403 14.043 10.6382 13.9587C10.436 13.8745 10.2192 13.831 10.0002 13.8309C9.78116 13.8307 9.56428 13.8739 9.362 13.9578C9.15972 14.0418 8.97603 14.1649 8.8215 14.3201C8.66231 14.4739 8.53534 14.6578 8.44799 14.8611C8.36065 15.0644 8.31467 15.2831 8.31275 15.5044C8.31082 15.7257 8.35299 15.9452 8.43679 16.15C8.52059 16.3549 8.64435 16.541 8.80084 16.6974C8.95733 16.8539 9.14341 16.9777 9.34824 17.0615C9.55307 17.1453 9.77253 17.1875 9.99383 17.1855C10.2151 17.1836 10.4338 17.1376 10.6372 17.0503C10.8405 16.9629 11.0244 16.836 11.1782 16.6768ZM17.0707 10.0959C16.6287 10.0959 16.2048 9.9202 15.8923 9.60762C12.6432 6.35845 7.3565 6.35928 4.1065 9.60762C3.79387 9.92024 3.36986 10.0959 2.92775 10.0959C2.48563 10.0959 2.06162 9.92024 1.749 9.60762C1.43637 9.29499 1.26074 8.87098 1.26074 8.42887C1.26074 7.98675 1.43637 7.56274 1.749 7.25012C6.29816 2.70178 13.6998 2.70178 18.2482 7.25012C18.4814 7.48311 18.6403 7.78004 18.7048 8.10336C18.7693 8.42668 18.7364 8.76186 18.6103 9.0665C18.4843 9.37113 18.2707 9.63154 17.9967 9.81479C17.7226 9.99803 17.4003 10.0959 17.0707 10.0959ZM6.464 13.6309C6.13441 13.6309 5.81225 13.5331 5.53823 13.35C5.26422 13.1668 5.05065 12.9065 4.92453 12.602C4.79842 12.2975 4.76541 11.9625 4.82969 11.6392C4.89397 11.316 5.05265 11.019 5.28566 10.7859C7.884 8.18678 12.114 8.18678 14.7132 10.7859C15.0258 11.0986 15.2014 11.5226 15.2014 11.9647C15.2014 12.4068 15.0258 12.8308 14.7132 13.1434C14.4005 13.4561 13.9765 13.6317 13.5344 13.6317C13.0923 13.6317 12.6683 13.4561 12.3557 13.1434C11.73 12.5193 10.8823 12.1688 9.99858 12.1688C9.11483 12.1688 8.26716 12.5193 7.6415 13.1434C7.32908 13.4555 6.90558 13.6309 6.464 13.6309Z" fill="black"/>
</g>
</svg>
