<svg width="22" height="22" viewBox="0 0 22 22" fill="none" xmlns="http://www.w3.org/2000/svg">
<path d="M10.3567 0.840068C10.5805 0.386644 11.2271 0.386644 11.4508 0.840068L14.3477 6.7097C14.4365 6.88976 14.6083 7.01456 14.807 7.04343L21.2845 7.98467C21.7849 8.05738 21.9847 8.6723 21.6226 9.02525L16.9355 13.5941C16.7917 13.7343 16.7261 13.9362 16.76 14.1341L17.8665 20.5855C17.952 21.0838 17.4289 21.4639 16.9813 21.2286L11.1877 18.1826C11.0099 18.0892 10.7976 18.0892 10.6199 18.1826L4.8262 21.2286C4.37865 21.4639 3.85556 21.0838 3.94104 20.5855L5.04753 14.1341C5.08147 13.9362 5.01586 13.7343 4.87208 13.5941L0.184898 9.02525C-0.177183 8.6723 0.0226175 8.05738 0.523001 7.98467L7.00053 7.04343C7.19923 7.01456 7.371 6.88976 7.45987 6.7097L10.3567 0.840068Z" fill="#FAAF00"/>
</svg>
